<svg width="200" height="64" viewBox="0 0 200 64" fill="none" xmlns="http://www.w3.org/2000/svg">
<rect width="200" height="64" rx="12" fill="#232323"/>
<path d="M41.616 42.9461H57.36V38.848H46.372V33.8333H55.474V29.7353H46.372V25.098H57.4147V21H41.616V42.9461ZM76.302 34.8039L65.9973 21H58.8907L61.1047 23.777V43H65.8607V28.6029L76.5207 42.9461H81.058V21H76.302V34.8039ZM34.4273 31.6495C36.5047 31.2451 38.254 29.3309 38.254 26.6348C38.2267 23.723 36.0947 21 31.8033 21H18L20.132 23.6961V42.9461H32.268C36.5593 42.9461 38.7733 40.3039 38.7733 36.9877C38.7187 34.2917 36.8327 31.973 34.4273 31.6495ZM24.9153 25.125H30.874C32.4867 25.125 33.498 26.0417 33.498 27.4436C33.498 28.8186 32.4867 29.7623 30.874 29.7623H24.9153V25.125ZM31.0927 38.875H24.9427V33.8333H31.0927C32.8967 33.8333 33.908 34.9657 33.908 36.3407C33.908 37.9314 32.842 38.848 31.0927 38.875ZM150.676 34.8039H153.163V37.3922C151.879 38.4436 150.266 39.0098 148.599 39.0368C144.635 39.0368 141.82 36.0711 141.82 32.027C141.82 28.0098 144.635 25.0172 148.599 25.0172C150.676 25.0441 152.589 26.0686 153.683 27.7941L157.427 25.7451C155.815 23.2377 152.999 21 148.517 21C142.23 21 136.982 25.2868 136.982 31.973C136.982 38.6593 142.148 42.9461 148.517 42.9461C151.988 43 155.323 41.5441 157.619 38.9828V30.8676H147.478L150.676 34.8039ZM129.247 34.8039L118.915 21H111.808L114.022 23.777V43H118.778V28.6029L129.438 42.9461H134.003V21H129.247V34.8039ZM173.39 21H164.206L166.42 23.777L166.01 24.8284L158.903 43H164.261L165.655 39.3064H175.249L176.643 43H182L173.39 21ZM166.912 35.1544L170.383 25.6912L173.855 35.1544H166.912ZM104.319 21H109.075V43H104.319V21ZM100.492 24.7745V21H83.7367V25.098H94.26L83.7367 39.1716V42.9461H100.683V38.848H89.8867L100.492 24.7745Z" fill="white"/>
</svg>
