<svg width="200" height="64" viewBox="0 0 200 64" fill="none" xmlns="http://www.w3.org/2000/svg">
<rect width="200" height="64" rx="12" fill="#232323"/>
<path d="M59.0669 27.9656L58.8193 29.2772H58.7762C58.4452 28.5151 57.4982 27.5004 55.4777 27.5004C52.1793 27.5004 48.8392 30.1235 48.0981 34.228C47.4389 37.8245 49.1702 40.9985 53.0457 40.9985C54.4891 40.9985 56.1397 40.4077 56.9629 39.1789H57.0061L56.7585 40.5333H60.3851L62.6531 27.9228H59.0669V27.9656ZM57.9127 34.228C57.6652 35.4539 56.5528 37.4863 54.243 37.4863C52.0167 37.4863 51.5634 35.4554 51.7678 34.3107C52.0153 32.8722 53.2932 31.0525 55.3943 31.0525C57.4565 31.0525 58.1574 32.7451 57.9098 34.228H57.9127ZM64.7571 27.9656H68.1792L67.9317 29.2772H67.9749C68.4282 28.6864 69.2528 27.5004 71.3971 27.5004L70.7379 31.311C69.0067 31.3553 67.7158 31.6921 67.4395 33.6387L66.1616 40.5805H62.42L64.7571 27.9656ZM73.8694 23.0148H77.5823L75.8511 32.5354H75.9331L80.1784 27.9656H84.5072L78.8588 33.5087L82.1155 40.5761H77.9507L75.5589 34.4821H75.5301L74.4163 40.5761H70.7466L73.8694 23.0148ZM90.4191 27.5004C86.7062 27.5004 83.3675 30.8014 82.7487 34.3137C82.0896 38.0357 84.5216 41 88.0676 41C89.3866 40.9938 90.6759 40.5968 91.7804 39.8568C92.9346 39.1375 94.0067 38.0372 94.8745 36.6414H91.1228C90.504 37.3179 89.8031 37.826 88.6475 37.826C87.2041 37.826 86.1723 36.9368 86.2011 35.4569H95.4113C95.5351 35.1615 95.5768 34.9488 95.6588 34.4821C96.3597 30.5887 94.1751 27.5004 90.4191 27.5004ZM86.7062 32.8766C86.994 32.1145 87.9841 30.7202 89.9226 30.7202C91.8193 30.7202 92.3143 32.1159 92.3143 32.8766H86.7062ZM42.6583 40.5761H46.328V23H43.1936L36.6788 32.9844H36.6356V23H33.5027L22 40.5761H26.4526L32.9256 30.5917H32.9688V40.5761H36.1435L42.5762 30.5917H42.6583V40.5761ZM105 27.9656H102.692L103.351 24.2436H100.134L99.8869 25.6822C99.5991 27.332 98.609 27.8386 97.2476 27.9671H97.2044L96.6288 30.8029H98.442L96.6691 40.551H100.339L102.112 30.8029H104.462L105 27.9656Z" fill="white"/>
<path d="M164.746 37.8731C163.548 40.6848 160.653 42.9596 157.345 42.9596C153.621 42.9596 151.266 40.0237 151.969 36.3431C152.63 32.7058 155.981 29.7685 159.702 29.7685C162.968 29.7685 165.186 31.9596 165.244 34.9647H161.52C161.272 34.0958 160.735 33.2283 159.163 33.2283C157.427 33.146 155.98 34.5923 155.649 36.3316C155.317 38.1098 156.226 39.4738 158.006 39.4738C159.536 39.4738 160.46 38.6049 160.983 37.8197H164.746V37.8731ZM134.148 21L126.995 25.3835H129.022L122.53 35.1408H122.447V25.3835H119.262L112.767 35.1422H112.724V25.385H109V42.5612H112.226L118.718 32.804H118.761V42.5612H121.945L133.441 25.385H135.259L134.148 21ZM141.177 42.5453H137.54L137.788 41.2218H137.745C136.876 42.4198 135.262 43 133.816 43C129.888 43 128.193 39.8967 128.854 36.3835C129.599 32.3709 132.989 29.8089 136.255 29.8089C138.282 29.8089 139.233 30.802 139.563 31.5453H139.607L139.855 30.2636H143.492L141.177 42.5453ZM134.974 39.5287C137.248 39.5287 138.406 37.544 138.654 36.3446C138.902 34.8579 138.199 33.2413 136.131 33.2413C134.024 33.2413 132.739 35.0196 132.494 36.4254C132.246 37.583 132.742 39.5287 134.977 39.5287H134.974ZM152.712 30.2246H150.397L151.058 26.5873H147.832L147.584 27.9932C147.295 29.6054 146.302 30.1005 144.937 30.2261H144.894L144.357 32.9974H146.175L144.397 42.5237H148.077L149.856 32.9974H152.213L152.712 30.2246ZM168.219 25.3864H171.899L170.782 31.5064H170.825C171.611 30.3488 172.687 29.77 174.299 29.77C175.457 29.77 176.782 30.2246 177.403 31.134C178.188 32.332 178.105 33.4087 177.691 35.6416L176.41 42.5064H172.729L173.97 35.8091C174.094 35.2317 174.425 33.2038 172.484 33.2038C170.415 33.2038 170.085 35.0657 169.961 35.6864L168.679 42.5093H165.042L168.219 25.3864Z" fill="white"/>
</svg>
