<svg width="100%" height="100%" viewBox="0 0 511 503" fill="none" xmlns="http://www.w3.org/2000/svg">
<path d="M116.122 62.9325C116.045 64.2132 115.645 65.4536 114.96 66.5382C114.274 67.6227 113.325 68.516 112.202 69.1348C113.156 70.7521 113.607 72.6169 113.497 74.4915C113.387 76.3661 112.721 78.1655 111.584 79.66C110.471 81.1177 108.987 82.2486 107.286 82.9337C105.585 83.6188 103.73 83.8328 101.918 83.5533C101.435 84.8689 100.28 87.1512 98.9645 87.5808C98.7614 87.6867 98.5357 87.7419 98.3067 87.7419C98.0776 87.7419 97.852 87.6867 97.6489 87.5808C97.9677 89.4654 98.8568 91.207 100.196 92.5705C101.536 93.934 103.261 94.854 105.14 95.2062C111.289 96.307 117.035 94.2933 117.035 88.0372C118.506 88.3341 120.024 88.3078 121.485 87.9601C122.945 87.6124 124.312 86.9516 125.492 86.0235C126.333 85.3349 127.028 84.487 127.54 83.5286C128.051 82.5701 128.368 81.52 128.473 80.4387C128.741 73.5114 123.935 68.92 120.955 68.92C123.13 65.0805 121.733 61.7511 118.27 59.2272C117.387 58.6794 116.399 58.3227 115.37 58.18C115.925 59.7008 116.18 61.3146 116.122 62.9325V62.9325ZM62.4485 64.9194C62.5696 64.9194 62.6857 64.8713 62.7713 64.7857C62.8569 64.7001 62.905 64.584 62.905 64.4629C62.905 64.3419 62.8569 64.2258 62.7713 64.1402C62.6857 64.0546 62.5696 64.0065 62.4485 64.0065L60.8107 63.8185C60.3005 63.8185 59.4682 63.8185 58.9849 63.6574C58.6723 59.7167 58.6723 55.7573 58.9849 51.8166C58.9795 51.7043 58.9352 51.5974 58.8596 51.5143C58.784 51.4312 58.6817 51.377 58.5705 51.3611C58.4592 51.3452 58.3459 51.3686 58.25 51.4272C58.1541 51.4859 58.0817 51.5761 58.0451 51.6823C56.8776 54.6717 56.356 57.8744 56.5147 61.0798C56.4726 62.1887 56.5718 63.2985 56.81 64.3824C57.4544 66.0739 60.7033 65.3221 62.4485 64.9194ZM49.9901 49.2658C48.7013 49.6149 46.9561 50.8768 47.6005 51.3601C48.5472 51.7947 49.626 51.8428 50.6077 51.4944C51.5474 51.2527 53.1047 50.313 53.0779 49.8297C53.051 49.3464 51.2521 48.9168 49.9901 49.2658V49.2658ZM67.3889 51.1453C76.8401 53.1054 72.4636 49.5075 67.8185 48.9168C66.6103 48.7557 63.791 48.9168 63.8447 49.588C63.8984 50.2593 66.664 50.9842 67.3889 51.1453ZM69.5101 55.6561C69.4348 55.5233 69.334 55.4067 69.2135 55.3131C69.0929 55.2195 68.955 55.1507 68.8076 55.1108C68.6603 55.0708 68.5065 55.0605 68.3552 55.0804C68.2038 55.1002 68.0579 55.1499 67.9259 55.2265C67.2547 55.6024 67.2815 56.0052 67.4426 58.18C67.464 58.4862 67.6061 58.7714 67.8377 58.9728C68.0694 59.1742 68.3715 59.2754 68.6777 59.254C68.9839 59.2327 69.2691 59.0905 69.4705 58.8589C69.6719 58.6273 69.7731 58.3251 69.7517 58.0189C69.792 57.2236 69.7106 56.4268 69.5101 55.6561V55.6561ZM50.5003 57.1329C50.5252 56.8267 50.4275 56.5231 50.2286 56.289C50.0297 56.0548 49.7459 55.9093 49.4397 55.8843C49.1335 55.8594 48.8299 55.9572 48.5958 56.1561C48.3616 56.3549 48.2161 56.6387 48.1912 56.9449C48.1402 57.5973 48.1402 58.2526 48.1912 58.905C48.2125 59.2112 48.3547 59.4964 48.5863 59.6978C48.8179 59.8992 49.1201 60.0003 49.4263 59.979C49.7325 59.9576 50.0177 59.8155 50.2191 59.5838C50.4205 59.3522 50.5216 59.0501 50.5003 58.7439C50.554 58.18 50.4734 57.4551 50.5003 57.1329ZM59.8172 74.6122C59.8172 75.4714 63.2272 75.6862 64.9993 73.9141C66.3149 72.5985 66.2344 70.5847 65.6974 70.4505C65.1604 70.3162 65.5094 70.4505 63.5762 72.1152C62.368 73.1355 59.7635 73.941 59.8172 74.6122V74.6122Z" fill="#232323"/>
<path d="M509.447 52.2999C508.745 52.0731 508.003 52.0013 507.27 52.0894C506.538 52.1775 505.833 52.4233 505.205 52.81C505.718 51.5807 505.894 50.2368 505.715 48.9168C505.232 46.7419 502.064 45.7485 499.459 48.9168C499.298 47.1984 498.519 46.017 497.15 45.7753C493.74 45.1309 492.263 51.6286 491.512 55.0386C489.739 53.7229 486.84 51.4944 485.39 53.2396C484.98 53.6776 484.703 54.224 484.594 54.814C484.485 55.404 484.546 56.013 484.772 56.569C485.817 58.3936 487.303 59.9263 489.095 61.0261C488.585 62.2075 486.41 65.3221 485.282 67.1479C484.369 66.8794 482.436 66.3693 482.034 67.1479C472.609 79.9822 447.129 109.732 431.26 109.114C406.746 108.175 375.895 96.307 372.808 96.7366L368.485 87.2586C373.24 84.0023 376.811 79.2916 378.661 73.8336C381.672 65.5027 383.04 56.6672 382.689 47.8159C382.709 44.9468 382.574 42.0786 382.286 39.2239C393.616 38.4721 401.081 25.1277 392.247 14.0923C391.395 12.7692 390.286 11.6309 388.985 10.7453C387.684 9.85967 386.219 9.24474 384.675 8.93711C382.856 8.84234 381.035 9.08821 379.305 9.66206C368.565 12.3471 368.404 5.55401 361.047 3.72821C357.685 3.16481 354.232 3.52679 351.059 4.77536C340.319 8.53436 342.414 14.5219 337.446 19.516C334.761 22.201 323.296 18.4152 318.651 26.0406C313.711 34.3909 314.167 52.0582 321.336 58.9855C322.929 60.416 324.686 61.6509 326.572 62.664C328.311 64.4423 330.346 65.905 332.586 66.9868C334.681 71.256 337.07 83.5264 337.956 88.1715L337.124 95.1525C331.398 96.0525 325.751 97.3991 320.235 99.18C311.198 102.105 302.43 105.807 294.03 110.242C278.725 118.297 280.605 118.136 280.068 117.277C278.212 115.257 276.24 113.347 274.161 111.558C259.501 99.2068 243.606 88.6816 224.837 85.5939L222.636 73.1086C228.543 68.2756 231.765 58.5291 231.872 51.6286C234.074 52.5415 235.819 50.9305 236.974 48.9436C237.296 48.3529 239.31 48.9436 240.867 45.4531C241.136 44.7254 241.136 43.9254 240.867 43.1977C241.405 42.8761 241.867 42.4404 242.219 41.9213C242.571 41.4022 242.805 40.8123 242.905 40.193C243.005 39.5737 242.968 38.9401 242.797 38.3366C242.626 37.7332 242.324 37.1746 241.914 36.7C242.741 36.2297 243.449 35.5762 243.985 34.7896C244.52 34.003 244.868 33.1043 245.002 32.1624C245.592 28.645 244.787 25.4767 241.404 24.3759C241.404 23.5972 241.968 22.3084 241.968 22.0399C241.997 20.7896 241.775 19.5462 241.313 18.3837C240.852 17.2213 240.161 16.1636 239.283 15.2737C235.551 12.0786 234.369 12.3471 232.033 12.5887C232.033 10.9777 233.054 9.90371 231.362 7.70201C230.065 6.20516 228.338 5.14436 226.416 4.66393C224.494 4.18351 222.471 4.30679 220.622 5.01701L219.951 5.23181C219.531 4.17666 218.893 3.22214 218.079 2.43086C217.264 1.63959 216.292 1.02945 215.225 0.640461C211.869 -0.621489 209.56 1.01636 206.741 2.49311C202.525 -1.26589 194.47 0.74786 190.147 3.35231C188.187 4.53371 187.999 6.62801 187.221 7.59461C185.552 7.47299 183.89 7.9073 182.495 8.82971C181.26 9.60836 180.105 10.7361 179.112 11.5147C178.457 12.0226 177.917 12.6631 177.528 13.3942C176.697 14.7593 176.217 16.3091 176.132 17.905C175.472 18.0631 174.845 18.3357 174.279 18.7105C172.134 20.631 170.626 23.16 169.956 25.96C169.663 27.5092 169.812 29.1096 170.386 30.5782C170.386 30.7393 170.654 31.0615 170.735 31.2226C170.198 32.0013 168.801 32.6188 168.533 34.7131C168.264 36.8074 168.345 40.9155 170.386 42.1506C171.245 42.6607 173.071 43.1977 173.715 43.6005C173.613 44.699 173.613 45.8045 173.715 46.903C174.413 51.4407 178.897 53.0785 183.515 52.4073L184.777 53.0517C185.268 57.8351 186.538 62.506 188.536 66.8794C190.027 69.7683 192.272 72.1994 195.034 73.9141L193.745 85.3522C187.337 86.2886 181.039 87.8719 174.95 90.0778C156.504 96.8172 145.737 105.57 136.206 120.767C123.076 109.893 100.844 93.5952 83.6601 93.8905C83.7704 92.7296 83.7704 91.5609 83.6601 90.4C83.6601 89.6214 83.2305 87.2317 82.5056 86.8827C82.5056 85.567 82.2908 84.1977 82.1834 82.9357C88.2515 91.9036 100.629 87.1512 99.26 81.0294C100.791 81.1308 102.325 80.8588 103.728 80.2368C105.131 79.6147 106.362 78.6612 107.315 77.4583C108.24 76.1361 108.737 74.5613 108.737 72.9475C108.737 71.3337 108.24 69.7589 107.315 68.4367C107.093 68.0787 106.822 67.7533 106.509 67.4701C110.698 66.3961 112.148 64.5435 112.685 61.8853C113.117 59.8517 112.959 57.7369 112.229 55.7904C112.706 55.5544 113.157 55.2662 113.571 54.9312C114.802 53.7551 115.637 52.2258 115.961 50.5546C116.602 44.7364 115.339 38.8671 112.363 33.8271C111.398 32.1464 109.82 30.905 107.959 30.3634C107.61 28.7649 107.403 27.1386 107.342 25.5036C106.899 22.9648 105.853 20.5693 104.293 18.5183C102.732 16.4673 100.703 14.8206 98.3739 13.7164C96.1177 12.6586 93.6688 12.0738 91.1781 11.998C90.1319 11.9112 89.0793 12.0485 88.0904 12.4008C86.3787 10.3302 84.1309 8.76981 81.5927 7.88996C76.6667 6.97504 71.5759 7.81085 67.2011 10.2528C66.315 10.8435 65.6169 11.998 64.8383 12.5619C62.9266 11.741 60.8541 11.3629 58.7758 11.4559C56.6974 11.5488 54.667 12.1105 52.8363 13.0989C50.8929 13.9504 49.1418 15.1862 47.6883 16.732C46.2348 18.2777 45.109 20.1015 44.3786 22.0936C43.2509 24.7786 42.2306 29.182 43.949 31.4911C44.0477 31.619 44.1374 31.7536 44.2175 31.8939C43.1972 33.6928 40.8612 34.5789 40.0826 39.573C39.7654 42.0781 39.8652 44.6184 40.3779 47.091C40.5207 47.7 40.8621 48.2442 41.3482 48.6379C41.8343 49.0317 42.4375 49.2526 43.0629 49.2658C42.2306 57.3208 42.3648 68.0608 46.7682 75.015C47.8644 76.6416 49.1437 78.1371 50.5809 79.4721C52.0823 80.943 53.9286 82.0139 55.9509 82.5867V87.366C54.6084 88.1178 55.5482 92.3869 54.9843 94.9645C44.0832 94.2127 28.8324 96.7366 20.3747 103.718C7.32556 114.565 2.00926 129.87 0.613061 146.785C-1.29329 170.118 11.3531 184.563 30.9804 187.06C32.2135 191.145 33.6655 195.16 35.3301 199.089C27.0368 214.64 20.972 231.28 17.3138 248.52C14.6288 263.126 13.3668 286.271 13.1252 308.476C13.1252 319.055 13.1252 358.739 16.6694 368.62C17.2332 370.177 19.6497 371.009 21.2339 371.466C25.6392 372.619 30.1278 373.427 34.6589 373.882C35.7866 397.457 39.1428 487.216 39.1428 487.35C34.5293 489.82 30.2821 492.919 26.5233 496.56C25.9261 497.092 25.4781 497.77 25.2238 498.529C24.9695 499.287 24.9177 500.098 25.0734 500.883C25.35 501.58 25.8689 502.154 26.5348 502.499C27.2008 502.845 27.9689 502.938 28.6982 502.762C33.1553 502.36 45.1572 498.762 50.5809 497.768C50.7152 498.923 50.9031 500.05 52.0308 500.453C53.964 501.124 57.7767 501.473 59.1729 499.728C60.5691 497.983 59.7368 493.418 59.9247 491.458C60.0858 490.009 72.3294 405.538 76.518 376.567H79.8743C85.0295 404.464 99.1257 484.236 99.1526 484.37C96.3614 486.491 93.7152 488.796 91.2318 491.27C89.1644 493.365 85.7007 497.124 87.0701 499.701C88.4394 502.279 91.6614 500.963 94.3733 499.97C99.7433 498.09 107.798 494.466 111.906 493.123C112.202 494.224 112.551 495.325 113.705 495.566C115.307 495.808 116.942 495.726 118.511 495.325C120.794 494.654 121.196 493.231 121.196 490.868C120.203 478.973 120.176 516.483 120.982 376.03C123.959 375.91 126.909 375.414 129.762 374.554C137.36 370.821 136.662 261.784 126.781 227.469C126.11 225.106 121.868 212.782 118.86 205.13C118.955 204.87 118.955 204.585 118.86 204.325C117.978 202.101 116.983 199.923 115.88 197.8C116.686 187.919 117.545 168.856 118.35 163.083L125.036 167.674C125.584 169.835 126.358 171.932 127.345 173.93C128.445 176.816 130.211 179.402 132.5 181.475C135.392 184.14 138.835 186.136 142.583 187.324C146.332 188.512 150.296 188.862 154.195 188.349H158.706C163.915 219.28 162.411 216.031 163.19 216.81C143.401 285.009 137.011 414.372 139.696 479.94C139.696 480.251 139.8 480.554 139.991 480.799C141.361 482.544 149.899 483.484 152.718 483.967C147.423 486.791 142.383 490.07 137.655 493.768C135.266 496.103 138.407 500.48 141.334 501.232C142.945 501.661 164.855 498.547 166.519 498.305C166.734 499.325 167.217 500.319 168.238 500.507C171.11 501.002 174.024 501.208 176.937 501.124C178.118 501.124 179.622 500.856 179.891 499.728C180.787 495.26 181.308 490.724 181.448 486.169C183.354 486.169 185.261 486.169 185.878 485.632C191.248 480.262 215.225 343.622 217.185 332.587C217.851 328.885 218.023 325.111 217.695 321.364C213.802 275.316 215.252 294.272 214.634 276.524C214.66 276.419 214.72 276.325 214.805 276.258C214.89 276.191 214.996 276.154 215.104 276.154C215.213 276.154 215.318 276.191 215.403 276.258C215.489 276.325 215.549 276.419 215.574 276.524C217.373 297.628 218.447 298.353 219.897 326.17C219.897 328.076 241.78 477.792 245.727 481.712C247.829 482.582 250.084 483.02 252.359 483.001C252.102 488.781 252.562 494.571 253.728 500.238C253.803 500.451 253.92 500.646 254.072 500.813C254.224 500.979 254.409 501.112 254.614 501.205C256.574 502.172 263.904 501.205 265.354 501.017C265.815 500.843 266.219 500.546 266.522 500.157C266.825 499.769 267.016 499.305 267.072 498.815C269.355 499.138 290.674 502.145 292.231 501.742C295.158 500.99 298.326 496.614 295.909 494.251C290.317 489.976 284.371 486.185 278.135 482.92C281.357 482.678 288.123 482.088 290.915 480.45C295.131 477.953 291.103 290.647 257.272 213.829C257.89 212.836 260.253 185.261 260.36 184.026C268.847 183.739 277.07 181.007 284.042 176.159L294.782 172.293C288.242 197.212 283.336 222.532 280.095 248.09C279.477 253.138 276.363 278.216 279.719 281.975C280.065 282.365 280.543 282.613 281.061 282.673C282.592 282.807 288.714 283.344 295.238 283.747C295.238 360.78 302.81 402.128 315.027 483.242C315.065 483.494 315.191 483.724 315.383 483.891C315.574 484.058 315.819 484.152 316.074 484.155H316.772C317.278 487.895 318.095 491.587 319.215 495.191C320.907 498.601 347.139 498.52 350.844 497.339C351.491 497.007 352.004 496.463 352.297 495.798C352.591 495.134 352.646 494.388 352.455 493.687C351.381 488.908 341.715 487.861 337.151 484.424H338.735C338.983 484.43 339.225 484.351 339.42 484.199C339.616 484.047 339.753 483.833 339.809 483.591L360.349 380.783C360.591 382.286 375.036 485.498 375.036 485.498C375.082 485.768 375.224 486.012 375.436 486.185C375.649 486.358 375.917 486.448 376.191 486.437H378.312C378.689 490.221 379.299 493.979 380.138 497.688C380.179 497.858 380.259 498.016 380.37 498.151C380.482 498.286 380.623 498.394 380.782 498.466C383.467 499.728 407.068 501.151 410.962 499.03C411.669 498.647 412.207 498.012 412.47 497.252C412.734 496.492 412.703 495.661 412.385 494.922C411.711 493.053 410.507 491.42 408.921 490.223C405.672 488.424 400.007 488.022 396.973 486.437H398.476C398.733 486.422 398.978 486.326 399.176 486.161C399.374 485.997 399.515 485.774 399.577 485.525C399.577 485.525 407.391 456.822 411.982 390.798C414.667 352.295 415.419 312.933 415.123 274.86C418.56 275.128 424.413 275.397 427.313 275.262C428.119 275.262 428.897 275.262 429.246 274.484C432.361 268.281 429.998 206.634 428.253 191.088C428.092 189.584 424.252 164.05 423.742 160.72C432.683 160.371 445.598 158.465 452.928 153.229C490.518 126.379 497.687 80.5192 500.748 74.3706C501.043 73.7262 500.318 73.404 498.519 72.5179C499.552 69.4529 500.781 66.4574 502.198 63.55C505.93 61.4826 510.253 59.1198 510.548 54.8506C510.691 54.3638 510.659 53.8424 510.458 53.3766C510.257 52.9107 509.9 52.5299 509.447 52.2999V52.2999ZM241.672 24.886C241.458 24.886 241.404 24.7249 241.404 24.4564C241.404 24.1879 241.914 24.886 241.672 24.886ZM340.507 126.916C353.771 127.748 361.665 127.856 375.144 127.775C376.003 132.984 376.97 138.676 378.017 144.718C370.794 144.718 346.307 144.986 339.943 144.879C340.239 138.972 340.454 132.93 340.507 126.97V126.916ZM336.99 183.113C352.617 184.026 364.216 184.268 384.971 183.838C386.367 191.49 387.817 199.223 389.106 206.016C376.54 206.392 347.542 206.902 334.493 206.526C335.003 202.257 336.05 191.893 336.99 183.167V183.113ZM333.365 215.172C353.825 216.353 370.203 216.407 391.012 215.79C392.032 220.945 393.026 225.939 393.992 230.638C370.257 231.55 347.032 231.604 330.519 231.282C331.611 225.966 332.56 220.596 333.365 215.172ZM383.226 174.172C375.171 174.333 345.636 174.655 337.795 174.548C338.493 166.869 339.03 159.915 339.433 153.605C352.321 154.41 361.074 154.706 379.708 154.491C380.353 158.035 382.715 171.219 383.226 174.172ZM371.68 102.483C372.002 106.886 372.969 113.706 373.64 118.082C366.793 118.082 345.85 118.324 340.48 118.243C340.427 112.732 340.059 107.228 339.38 101.758C346.629 111.504 366.203 110.162 371.68 102.483V102.483ZM328.72 239.847C351.151 241.201 373.638 241.371 396.087 240.357C397.107 245.083 398.047 249.379 398.933 253.138C394.69 252.896 344.535 250.453 326.277 249.567C327.029 246.506 327.834 243.257 328.64 239.847H328.72ZM334.6 65.9934C333.66 64.1139 327.7 63.3084 327.136 58.5559C326.492 52.998 332.962 52.81 335.191 55.3071C335.379 55.495 336.695 57.2671 336.856 57.4819C338.252 59.3614 339.541 59.4151 339.97 56.7301C340.588 51.736 339.057 41.7478 344.884 42.795C349.047 44.1008 353.327 45 357.664 45.48C365.907 46.2318 372.459 45.48 377.775 39.573C378.366 39.4387 380.326 39.3582 381.024 39.3045C381.268 42.1436 381.34 44.9949 381.239 47.8428C381.422 56.4617 379.926 65.034 376.835 73.0818C372.566 83.3116 366.659 85.7818 366.659 85.7818C366.522 85.8341 366.397 85.9134 366.291 86.0148C366.185 86.1162 366.1 86.2379 366.042 86.3725C365.8 86.9901 365.719 86.3725 370.767 97.6764C371.841 107.423 342.977 111.397 339.245 96.0922L340.158 88.2789C340.266 87.715 337.07 71.0143 334.52 65.9934H334.6ZM275.53 114.323C284.02 122.753 289.87 133.473 292.365 145.174C293.949 153.229 293.278 159.995 290.647 164.64C288.923 167.624 286.77 170.338 284.256 172.695C281.622 175.388 278.408 177.445 274.859 178.71C267.405 181.444 259.407 182.364 251.526 181.395C241.046 180.07 230.698 177.851 220.595 174.763C220.595 173.957 220.434 173.098 220.353 172.078L229.617 168.695C231.391 168.201 233.109 167.526 234.745 166.681C235.685 166.198 235.765 164.775 235.873 163.566C236.329 159.163 235.416 159.754 236.759 158.68C239.766 156.317 248.036 154.008 251.634 152.987C252.842 152.665 254.587 152.397 254.05 151.242C253.88 149.593 253.205 148.036 252.117 146.785C246.452 122.781 247.418 122.862 246.505 123.023C246.443 123.029 246.383 123.048 246.329 123.079C246.275 123.11 246.229 123.153 246.193 123.204C246.157 123.255 246.133 123.314 246.122 123.375C246.111 123.436 246.114 123.499 246.129 123.56C247.338 130.702 249.137 139.938 250.425 146.167L247.096 145.684C246.532 145.684 245.968 145.684 245.834 145.416C244.76 143.187 245.217 140.556 242.639 139.267C242.371 139.086 242.067 138.964 241.749 138.908C241.43 138.852 241.103 138.864 240.789 138.942C240.475 139.021 240.181 139.164 239.926 139.363C239.671 139.563 239.461 139.814 239.31 140.099C237.913 142.784 239.605 148.799 239.31 148.718C237.88 149.304 236.383 149.71 234.852 149.926C234.791 149.68 234.681 149.449 234.528 149.246C234.376 149.044 234.185 148.873 233.966 148.745C228.519 146.083 222.85 143.9 217.024 142.221C215.762 131.642 214.097 118.324 213.507 113.867C213.713 113.771 213.903 113.644 214.071 113.491C215.018 111.622 215.713 109.636 216.138 107.584C216.594 108.094 216.97 108.577 217.803 108.255C225.087 102.962 231.97 97.1372 238.397 90.8296C252.017 96.4515 264.576 104.361 275.53 114.216V114.323ZM241.538 141.415C243.471 142.516 242.424 145.792 244.599 147.429C246.778 148.068 249.041 148.376 251.312 148.342C251.844 149.228 252.183 150.216 252.305 151.242C250.211 151.887 240.035 154.142 235.792 157.069C235.705 155.042 235.481 153.024 235.121 151.027C237.323 150.839 240.088 151.027 240.894 149.604C241.699 148.181 240.33 140.69 241.538 141.415ZM236.356 90.4C231.55 94.5618 220.783 103.476 217.561 105.839C215.95 104.04 211.735 99.0457 210.553 97.2199C213.238 94.9108 223.173 88.1983 224.623 87.3928C228.633 87.8692 232.573 88.8247 236.356 90.2389V90.4ZM194.067 87.2049L207.17 97.3005C205.183 99.4216 200.323 103.637 198.149 105.839C195.088 103.637 186.737 94.8034 182.039 89.9167C185.984 88.7481 190.002 87.8422 194.067 87.2049V87.2049ZM186.764 51.6555C186.388 51.1185 186.335 51.2796 183.596 49.8297C181.797 48.3529 179.622 47.1447 178.817 44.943C178.817 43.1172 179.38 40.8618 181.287 40.9692C182.728 41.3013 184.065 41.9837 185.18 42.9561C186.399 43.3558 187.709 43.3828 188.943 43.0336C190.177 42.6845 191.279 41.975 192.107 40.996C193.038 39.3204 193.315 37.3597 192.886 35.4918C194.653 35.3337 196.289 34.4963 197.45 33.1558C198.023 31.997 198.37 30.7393 198.471 29.4505C200.982 30.1641 203.665 29.9643 206.042 28.8867C207.668 28.1864 209.151 27.1945 210.419 25.96C210.7 26.6664 211.07 27.3341 211.52 27.9469C211.937 28.5854 212.519 29.0994 213.205 29.4349C213.89 29.7704 214.653 29.9149 215.413 29.8533C216.361 29.7029 217.272 29.375 218.098 28.8867V29.9607C218.084 30.7842 218.25 31.6008 218.586 32.3531C218.921 33.1054 219.417 33.7752 220.039 34.3152C220.661 34.8552 221.393 35.2524 222.185 35.4789C222.977 35.7053 223.809 35.7556 224.623 35.626C224.606 35.8046 224.606 35.9844 224.623 36.163C224.891 37.6129 224.327 41.9895 226.341 42.4996C228.355 43.0098 227.254 37.9888 231.12 37.3713C231.815 37.2017 232.547 37.2808 233.19 37.5947C233.832 37.9086 234.344 38.4375 234.638 39.0897C235.389 41.5062 234.638 42.5802 233.376 44.9698L232.543 45.9096C231.255 47.3058 229.858 48.7825 229.858 50.125C229.939 54.232 229.161 58.3106 227.576 62.1001C226.212 65.9414 223.815 69.3323 220.649 71.9004C220.491 72.0216 220.369 72.1822 220.293 72.3661C220.218 72.55 220.192 72.7506 220.219 72.9475L222.421 85.8624L208.513 95.3136C206.069 93.4341 209.318 96.2265 195.947 85.8892L197.397 73.404C197.422 73.1749 197.379 72.9435 197.274 72.7384C197.169 72.5333 197.006 72.3633 196.806 72.2494C187.167 66.8526 187.919 53.5081 186.764 51.6555V51.6555ZM155.618 102.402C162.964 97.1413 171.129 93.1314 179.783 90.5343C184.698 96.1901 189.924 101.568 195.437 106.644C196.618 107.665 198.122 108.927 199.169 107.853C199.545 107.423 200.109 106.859 200.753 106.215C201.423 108.545 202.212 110.839 203.116 113.088C203.223 113.287 203.368 113.463 203.543 113.606C203.718 113.749 203.92 113.856 204.136 113.921C203.841 117.384 203.116 127.346 202.283 138.381C193.765 136.553 185.054 135.777 176.346 136.072C176.346 135.374 177.206 127.104 177.232 126.835C177.232 125.386 177.232 123.479 177.393 122.727C177.426 122.61 177.41 122.484 177.349 122.379C177.289 122.273 177.189 122.196 177.071 122.164C176.954 122.132 176.828 122.147 176.723 122.208C176.617 122.268 176.539 122.368 176.507 122.486C174.118 127.346 174.547 130.782 174.87 136.152C168.864 136.449 162.977 137.937 157.551 140.529C157.441 140.586 157.358 140.684 157.32 140.803C157.282 140.921 157.293 141.05 157.35 141.16C157.407 141.27 157.505 141.354 157.624 141.391C157.742 141.429 157.871 141.418 157.981 141.361C176.776 132.179 210.875 140.878 228.999 148.691C230.264 149.209 231.492 149.81 232.678 150.49C233.505 154.724 233.757 159.05 233.429 163.351C233.429 164.56 233.429 164.855 231.281 165.687C229.751 166.305 227.925 166.735 226.797 167.164C223.119 168.533 219.575 169.849 216.057 171.192C196.202 177.564 175.914 182.5 155.35 185.959C148.664 185.959 139.857 184.724 134.944 180.106C113.678 160.21 135.91 115.934 155.618 102.402V102.402ZM54.9843 79.66C52.4888 78.2209 50.3576 76.2274 48.7551 73.8336C44.5665 67.3359 44.5128 56.7033 45.2109 49.0242C48.9621 47.8567 52.372 45.7923 55.1454 43.0098C58.1472 39.9421 60.7703 36.5257 62.9588 32.8336L64.4624 29.9338C67.1843 36.8963 71.8429 42.9338 77.8874 47.3326C79.989 48.2947 82.2626 48.8243 84.573 48.8899C84.5204 50.9957 84.7461 53.0993 85.2443 55.146C85.2979 55.2544 85.3731 55.3507 85.4653 55.4289C85.5576 55.5072 85.6648 55.5657 85.7805 55.6009C85.8963 55.6361 86.0179 55.6473 86.1381 55.6337C86.2583 55.6201 86.3744 55.582 86.4794 55.5219C87.6608 54.8775 88.1172 51.4138 89.943 49.0242C90.4263 48.3529 90.9902 47.8428 91.6883 48.0039C92.4246 48.1166 93.1238 48.4018 93.7289 48.8362C96.4139 50.8231 94.2659 58.7707 89.2449 61.2409C87.7413 61.9927 79.9011 71.1217 79.391 73.9947C79.055 75.5727 79.1384 77.2113 79.6326 78.7471C79.7937 81.0831 80.0622 84.1171 80.2502 86.8021C75.2829 86.8021 63.1736 86.8021 58.2063 87.0438C58.448 80.4118 58.5822 81.1099 54.9843 79.66V79.66ZM105.14 374.446H84.8684C87.9561 336.212 91.7151 242.452 90.9096 209.238C94.4896 209.077 97.7116 208.862 100.576 208.594C106.697 240.25 110.107 343.488 105.14 374.446V374.446ZM38.0151 372.003C35.1153 339.971 38.0151 236.008 45.6942 208.218C47.0367 208.406 56.649 209.265 56.649 209.265C52.5678 242.076 48.3792 336.239 49.8291 373.05C45.4794 372.728 41.5056 372.325 37.854 372.003H38.0151ZM67.7112 207.305L57.6156 206.902C57.5922 204.008 57.7987 201.117 58.2332 198.256L61.8579 197.988L69.6981 197.8C69.312 201.02 68.6472 204.2 67.7112 207.305ZM36.6189 198.471L56.0583 198.095C55.514 201.053 55.2621 204.057 55.3065 207.063C48.012 207.004 40.7393 206.258 33.5849 204.835C35.5718 200.485 36.4041 199.008 36.6189 198.471ZM58.5017 373.533C57.6156 340.024 63.0662 237.511 66.5567 209.399C70.2351 209.399 72.9738 209.587 80.5992 209.399C80.5992 222.126 76.7865 358.417 75.9005 374.124C71.3091 374.124 59.6831 373.614 58.5017 373.533V373.533ZM69.7787 207.332C70.4375 204.198 70.7615 201.003 70.7453 197.8C88.3857 197.478 105.65 197.048 113.437 198.095C114.498 199.966 115.396 201.924 116.122 203.949C100.952 207.198 83.9286 207.332 69.7787 207.332V207.332ZM19.2201 368.297C14.5751 365.344 13.0715 282.002 18.7637 248.761C21.6588 233.883 26.4692 219.443 33.0747 205.801L35.894 206.392C28.376 233.537 25.3688 332.184 29.1009 370.741C25.7104 370.386 22.3852 369.564 19.2201 368.297V368.297ZM58.0721 489.122C50.6078 490.143 46.5803 490.733 43.6536 491.378C41.9742 491.536 40.2948 491.078 38.928 490.089C41.1297 488.773 41.613 488.961 41.613 487.699C41.8547 482.491 36.5384 384.327 35.894 373.936C48.1376 375.332 63.4421 376.084 75.6857 376.433C71.5239 402.048 59.9784 475.993 57.9915 489.203L58.0721 489.122ZM118.162 483.591C111.342 485.498 107.073 486.733 104.2 487.807C102.556 488.197 100.826 487.967 99.3405 487.162C101.274 485.632 101.676 485.739 101.569 484.477C101.086 479.107 82.1565 381.991 81.0825 376.594C96.2796 376.916 110.618 376.755 119.934 376.111C119.317 406.263 118.243 471.294 118.082 483.672L118.162 483.591ZM124.982 227.953C133.95 259.716 134.863 356.833 128.822 372.432C126.566 373.56 116.444 373.99 113.974 374.097C119.344 340.669 116.659 239.847 110.51 207.278C113.034 206.875 115.289 206.446 117.384 205.989C120.364 214.125 124.284 225.831 124.902 228.033L124.982 227.953ZM106.026 149.47C104.872 148.423 103.744 147.483 102.777 146.463C102.703 146.367 102.593 146.304 102.472 146.289C102.351 146.274 102.229 146.307 102.133 146.382C102.037 146.457 101.974 146.567 101.959 146.688C101.944 146.809 101.978 146.931 102.052 147.027C106.644 154.545 113.007 158.169 116.417 161.257C115.558 164.533 114.672 184.16 113.732 195.786C106.644 194.148 69.6176 196.082 57.186 196.082C56.9027 196.086 56.6325 196.201 56.4342 196.404C46.6608 196.86 38.9549 197.317 36.8069 197.451C35.5181 194.444 33.9071 189.584 32.9136 186.496C37.2677 187.278 41.7294 187.242 46.0701 186.389C46.1448 188.021 46.4989 189.629 47.1173 191.141C48.4598 192.323 93.1382 189.127 94.5612 188.832C95.5278 188.617 95.5547 187.275 95.6352 186.147C95.8769 183.462 96.038 177.555 96.1454 170.628C96.5609 170.462 96.9355 170.208 97.2431 169.883C97.5508 169.558 97.7842 169.171 97.9272 168.747C98.0702 168.323 98.1194 167.873 98.0714 167.428C98.0233 166.983 97.8792 166.554 97.649 166.171C97.963 165.771 98.1921 165.311 98.322 164.819C98.4519 164.328 98.4801 163.815 98.4046 163.312C98.3292 162.809 98.1518 162.327 97.8834 161.895C97.6149 161.463 97.261 161.091 96.8435 160.801C97.1906 160.462 97.4547 160.048 97.615 159.591C97.7754 159.133 97.8278 158.645 97.768 158.164C97.7082 157.683 97.5378 157.222 97.2703 156.818C97.0028 156.413 96.6453 156.077 96.2259 155.833C96.2259 146.141 96.2259 136.689 95.8769 131.4C95.7158 127.05 95.5815 126.567 94.9103 126.03C93.5946 125.224 87.9293 125.547 85.3785 125.654C85.4138 124.515 85.105 123.393 84.4925 122.432C83.2574 121.224 77.8068 122.432 74.6385 122.432C73.9404 120.204 73.5914 118.539 71.1212 117.384C69.9052 116.955 68.5732 116.992 67.3828 117.488C66.1924 117.984 65.2284 118.903 64.6772 120.069C64.6772 120.338 63.8985 122.539 63.7374 123.264C60.8563 123.482 57.9884 123.85 55.1454 124.365C54.1251 124.687 54.0446 126.835 54.0177 128.339C43.7879 129.413 43.1166 129.413 42.9287 130.46C42.7407 131.507 43.4925 148.584 43.5462 150.007C41.0357 150.326 38.5505 150.819 36.1088 151.484C36.6168 148.149 36.9217 144.787 37.0217 141.415C37.0217 139.938 37.1559 133.629 36.2699 133.602C35.3838 133.575 34.8468 139.777 34.7663 141.012C34.6052 142.892 34.3635 149.9 34.4978 151.994C33.3701 152.343 32.2961 152.719 31.1952 153.148C31.0813 153.191 30.989 153.277 30.9386 153.388C30.8883 153.499 30.884 153.625 30.9267 153.739C30.9694 153.853 31.0557 153.945 31.1665 153.996C31.2772 154.046 31.4035 154.05 31.5174 154.008C46.6877 148.772 67.2279 151.699 78.4781 157.337L78.9882 168.641C69.2685 175.434 53.8029 183.838 41.9889 185.342C38.5048 185.744 34.9821 185.672 31.5174 185.127C11.1651 182.496 0.666761 167.916 2.14351 146.973C3.29806 130.675 8.48011 114.914 20.9922 104.469C29.0472 97.7838 44.4323 95.5015 54.9038 96.4144C57.5888 96.6292 56.1389 90.8296 56.837 88.7353C57.8573 88.5742 61.1061 88.5205 62.207 88.4937C62.0737 90.3439 62.0737 92.2014 62.207 94.0516C62.207 94.8303 62.7708 97.7569 63.4689 97.5421C64.167 97.3273 64.4355 95.0451 64.4624 94.4007C64.4892 93.7563 64.4624 93.6757 64.2207 88.4937H73.1618C73.0537 90.282 73.0537 92.0753 73.1618 93.8637C73.1618 94.6423 73.7256 97.569 74.4237 97.3542C75.1218 97.1394 75.3903 94.8571 75.4172 94.2127C75.444 93.5683 75.4172 92.2258 75.1755 88.5474H81.7269C81.9956 89.4177 82.1402 90.3216 82.1565 91.2324C82.1565 94.347 81.6195 94.8034 82.1565 95.421C83.6064 97.0588 96.7629 90.5611 135.239 122.593C128.07 134.676 122.405 150.49 124.499 164.425C118.243 160.21 119.451 161.526 106.026 149.47V149.47ZM45.4794 149.712C45.2109 140.717 44.9961 132.501 44.9961 131.507C47.1173 131.185 51.9234 130.702 54.0446 130.487C54.0446 134.434 54.2057 134.703 56.7296 134.971C61.5357 135.535 82.7204 134.971 84.9489 133.065C85.1511 132.901 85.3082 132.688 85.4054 132.447C85.5756 130.968 85.6115 129.476 85.5128 127.99C88.133 127.842 90.7595 127.842 93.3798 127.99C93.89 132.769 93.9437 150.41 93.9437 155.216C92.9355 155.225 91.933 155.369 90.9633 155.646C91.3392 153.444 91.9031 149.873 89.6745 149.389C89.078 149.219 88.4445 149.227 87.8526 149.413C87.2608 149.599 86.7366 149.955 86.3451 150.437C85.1823 152.23 84.4982 154.291 84.3582 156.424C83.1288 156.428 81.9003 156.356 80.6798 156.209C80.6383 156.064 80.5666 155.929 80.4694 155.814C80.3723 155.698 80.2518 155.604 80.1159 155.538C69.3022 150.527 57.3321 148.541 45.4794 149.792V149.712ZM95.9574 164.56C94.9103 165.177 94.239 164.748 92.3595 164.989C92.0675 164.989 91.7875 165.105 91.5811 165.312C91.3746 165.518 91.2587 165.798 91.2587 166.09C91.2587 166.382 91.3746 166.662 91.5811 166.869C91.7875 167.075 92.0675 167.191 92.3595 167.191C93.2522 167.282 94.1518 167.282 95.0445 167.191C95.2593 167.191 96.038 167.352 96.038 167.567C96.038 170.01 91.2318 169.07 89.1107 167.835C86.4829 167.674 83.8461 167.928 81.2973 168.587L80.7603 157.525C82.2212 157.916 83.7447 158.017 85.2443 157.82C85.452 157.704 85.6061 157.512 85.6739 157.283C86.2914 155.028 86.8016 150.866 89.1644 151.457C89.3031 153.148 89.1302 154.85 88.6542 156.478C88.3857 158.143 89.0301 158.518 90.2921 158.411C91.4198 157.905 92.6293 157.604 93.8631 157.525C94.5612 157.525 95.2593 157.525 95.4741 158.331C95.6889 159.136 94.9908 159.431 94.3196 159.673C93.6483 159.915 91.017 160.291 90.7485 160.344C90.4831 160.428 90.2568 160.605 90.1112 160.842C89.9657 161.079 89.9108 161.361 89.9565 161.635C90.0023 161.91 90.1456 162.159 90.3602 162.336C90.5748 162.513 90.8462 162.607 91.1244 162.6C94.3733 162.251 93.8094 162.09 94.776 162.304C95.197 162.403 95.5711 162.644 95.8352 162.986C96.0993 163.329 96.2373 163.752 96.2259 164.184C96.2304 164.278 96.2074 164.371 96.1597 164.452C96.112 164.533 96.0417 164.599 95.9574 164.64V164.56ZM81.1631 169.688C83.531 169.375 85.9166 169.213 88.3052 169.205C89.9813 170.263 91.9089 170.856 93.89 170.923C93.89 175.729 93.89 184.348 93.5678 186.872C87.7145 187.49 53.5881 190.819 47.7348 190.282C47.4249 188.903 47.2184 187.503 47.1173 186.093C61.9385 183.033 80.4113 171.192 81.1631 169.769V169.688ZM177.823 498.627C174.763 498.827 171.69 498.664 168.667 498.144V496.802C168.636 496.479 168.482 496.181 168.238 495.969C167.513 495.405 168.077 495.808 149.282 498.198L143.133 498.896C142.542 498.896 141.871 499.191 141.871 498.896C140.421 498.52 138.3 495.969 139.186 495.029C144.203 491.003 149.497 487.334 155.027 484.048C163.378 485.041 173.366 485.739 179.541 485.927C179.268 490.221 178.703 494.491 177.85 498.708L177.823 498.627ZM268.549 483.162C271.046 483.162 273.543 483.028 275.933 482.893C279.558 485.122 291.533 492.506 294.486 495.54C294.97 496.05 294.486 497.043 294.057 497.607C292.338 499.97 291.023 499.379 290.539 499.325C285.975 498.95 270.858 496.828 266.374 496.184C266.218 496.162 266.06 496.171 265.908 496.212C265.756 496.253 265.614 496.325 265.49 496.423C265.367 496.521 265.265 496.644 265.191 496.783C265.117 496.922 265.072 497.074 265.059 497.231V498.574C262.048 499.119 258.982 499.29 255.93 499.084C254.844 493.855 254.286 488.529 254.265 483.189C254.211 482.41 253.406 483.511 268.576 483.242L268.549 483.162ZM255.5 212.299C241.726 212.299 176.212 213.937 165.042 215.199C164.774 210.634 161.659 191.866 160.908 187.355C173.866 185.125 186.7 182.222 199.357 178.656C199.041 180.482 198.96 182.341 199.115 184.187C202.351 188.095 205.947 191.691 209.855 194.927C210.057 195.087 210.299 195.188 210.554 195.221C210.809 195.255 211.069 195.218 211.305 195.115C215.144 191.91 218.436 188.101 221.052 183.838C221.163 181.617 221.01 179.391 220.595 177.206C228.059 179.891 248.304 184.133 258.454 183.972C257.97 189.53 255.93 209.453 255.5 212.299V212.299ZM283.961 237.082C290.835 189.745 297.252 174.065 297.386 170.574C301.64 168.724 305.602 166.264 309.146 163.271C310.54 162.034 311.849 160.707 313.067 159.297C313.523 158.868 312.905 158.196 312.476 158.599C312.046 159.002 310.999 159.566 310.247 160.049C301.118 166.171 299.024 168.399 288.311 172.212C290.651 169.901 292.424 167.08 293.493 163.969C298.192 148.101 291.721 131.749 281.437 118.888C293.7 111.313 306.744 105.084 320.343 100.308C325.706 98.5098 331.2 97.1275 336.775 96.1728C336.976 97.3478 337.347 98.4873 337.876 99.5559C342.172 125.949 333.687 202.767 328.64 228.275C325.713 243.096 320.128 264.71 313.711 278.538C313.283 279.563 312.771 280.551 312.18 281.491C308.797 282.619 285.062 280.632 281.384 280.283C278.645 275.316 283.182 242.827 284.015 237.082H283.961ZM397.537 484.102H377.157C377.157 483.296 362.014 376.191 361.584 374.715C363.303 363.679 375.009 304.475 374.607 289.681C374.607 289.56 374.559 289.444 374.473 289.358C374.387 289.272 374.271 289.224 374.15 289.224C374.029 289.224 373.913 289.272 373.827 289.358C373.742 289.444 373.694 289.56 373.694 289.681C373.694 291.238 373.211 294.245 372.566 298.246C362.605 360.43 354.953 396.248 337.822 482.276L317.094 482.061C303.508 396.141 296.849 354.47 296.5 283.854C299.346 284.015 311.16 284.767 313.442 283.613C314.248 283.21 315.08 281.411 315.59 280.364C319.622 271.162 322.943 261.665 325.525 251.956C343.917 252.977 391.173 255.178 399.309 255.608C402.772 271.933 403.014 272.873 403.981 273.222C407.051 274.005 410.188 274.5 413.351 274.698C413.566 329.123 410.72 431.126 397.59 483.967L397.537 484.102ZM499.567 74.2632C495.861 82.9357 487.967 126.325 451.827 151.672C444.766 156.612 431.905 158.384 423.313 158.626C422.924 154.403 422.115 150.229 420.896 146.167C420.359 144.503 419.554 142.543 419.07 141.361C419.02 141.263 418.938 141.185 418.837 141.14C418.736 141.095 418.623 141.086 418.517 141.115C418.41 141.143 418.316 141.207 418.251 141.295C418.186 141.384 418.153 141.493 418.157 141.603C419.634 153.363 419.876 149.202 421.487 159.834C421.487 159.834 425.917 189.826 426.078 191.302C428.146 210.097 429.461 265.247 427.367 272.899C419.953 273.073 412.541 272.498 405.243 271.181C402.37 261.596 374.258 122.352 373.64 98.8309C380.755 100.12 408.196 110.001 431.18 110.725C451.693 111.343 482.544 67.7655 482.812 67.7655C484.933 67.3896 496.64 72.3568 499.593 74.1289L499.567 74.2632ZM508.561 54.6895C508.347 58.1532 504.319 60.4891 501.339 62.3149C500.292 62.9862 497.929 70.9606 497.633 72.0883C493.921 70.3547 490.111 68.8395 486.222 67.5507C488.907 63.4695 491.243 61.3215 490.223 60.3549C488.37 58.6633 484.853 56.3811 486.679 54.4747C486.904 54.5237 487.121 54.6051 487.323 54.7164C489.874 55.9246 491.914 59.2003 493.015 57.1866C493.507 54.8203 494.18 52.4954 495.029 50.2324C496.452 46.9299 497.338 47.5474 496.989 50.7694C496.684 52.9716 496.135 55.133 495.351 57.2134C495.259 57.5054 495.286 57.8222 495.427 58.0941C495.568 58.366 495.811 58.5707 496.103 58.6633C496.395 58.7559 496.712 58.7287 496.984 58.5877C497.255 58.4467 497.46 58.2035 497.553 57.9115C498.223 55.5357 499.227 53.2667 500.533 51.1722C501.849 49.239 503.433 48.7557 503.379 50.0713C502.962 52.4299 502.046 54.6724 500.694 56.6496C500.348 57.1319 500.135 57.6967 500.077 58.2874C500.033 58.5382 500.078 58.7963 500.203 59.0178C500.329 59.2394 500.527 59.4106 500.764 59.5024C501.002 59.5942 501.264 59.6009 501.505 59.5213C501.747 59.4418 501.954 59.2809 502.09 59.0661C502.898 57.9387 503.796 56.879 504.775 55.8978C506.36 54.3405 508.669 53.2665 508.588 54.5553L508.561 54.6895Z" fill="#232323"/>
<path d="M206.177 56.7838C207.277 59.2809 213.292 57.7236 212.11 56.4616C212.025 56.3764 211.909 56.3285 211.788 56.3285C211.667 56.3285 211.552 56.3764 211.466 56.4616C211.108 56.5767 210.723 56.5767 210.365 56.4616C209.633 56.3566 208.919 56.1487 208.244 55.8441V45.7485C208.219 45.643 208.159 45.5491 208.073 45.482C207.988 45.4148 207.883 45.3783 207.774 45.3783C207.666 45.3783 207.56 45.4148 207.475 45.482C207.39 45.5491 207.33 45.643 207.304 45.7485C206.341 48.6813 205.931 51.7679 206.096 54.8506C206.029 55.4955 206.056 56.1468 206.177 56.7838ZM198.39 50.125C198.39 49.4001 198.39 48.6214 198.229 47.9502C198.176 47.6507 198.01 47.3831 197.765 47.2031C197.52 47.023 197.215 46.9444 196.913 46.9836C196.761 47.0063 196.614 47.0594 196.483 47.1397C196.351 47.2199 196.237 47.3257 196.147 47.4509C196.057 47.576 195.993 47.7179 195.958 47.8682C195.924 48.0186 195.92 48.1742 195.947 48.3261C195.947 48.8094 195.947 49.3732 196.081 50.2861C196.092 50.4377 196.132 50.5858 196.2 50.7218C196.268 50.8579 196.361 50.9792 196.476 51.0789C196.591 51.1787 196.724 51.2548 196.868 51.3031C197.012 51.3513 197.164 51.3707 197.316 51.3601C197.468 51.3495 197.616 51.3092 197.752 51.2414C197.888 51.1736 198.009 51.0797 198.109 50.965C198.209 50.8503 198.285 50.7171 198.333 50.573C198.381 50.4289 198.401 50.2766 198.39 50.125V50.125ZM216.514 49.9371C216.514 50.2433 216.635 50.5369 216.852 50.7535C217.069 50.97 217.362 51.0916 217.668 51.0916C217.975 51.0916 218.268 50.97 218.485 50.7535C218.701 50.5369 218.823 50.2433 218.823 49.9371V48.7288C218.977 48.5109 219.052 48.2473 219.037 47.981C219.022 47.7147 218.917 47.4614 218.74 47.2622C218.562 47.0631 218.323 46.9298 218.06 46.8841C217.797 46.8383 217.527 46.8829 217.292 47.0104C216.245 47.6817 216.514 49.0242 216.514 49.9371ZM211.09 66.5304C210.125 67.0679 209.108 67.5086 208.056 67.846C207.465 67.846 207.331 68.6784 208.056 68.7589C208.738 69.1016 209.495 69.2677 210.258 69.2422C211.037 69.1501 211.785 68.8823 212.445 68.4591C213.106 68.0358 213.661 67.4682 214.071 66.7989C214.402 66.0866 214.541 65.2995 214.473 64.5166C214.498 64.3956 214.474 64.2696 214.406 64.1663C214.338 64.0631 214.232 63.9911 214.111 63.9662C213.99 63.9413 213.864 63.9655 213.761 64.0334C213.657 64.1014 213.585 64.2076 213.56 64.3287C212.827 65.1581 211.998 65.8972 211.09 66.5304V66.5304ZM360.967 68.3562C363.007 69.0006 366.337 69.4302 367.76 67.8192C369.183 66.2082 368.404 62.0196 368.243 60.2475C367.908 56.7676 367.151 53.3414 365.988 50.0445C365.963 49.9234 365.891 49.8172 365.788 49.7492C365.684 49.6813 365.558 49.6571 365.437 49.682C365.316 49.7069 365.21 49.7789 365.142 49.8821C365.074 49.9854 365.05 50.1114 365.075 50.2324C365.075 51.0648 365.451 55.1728 365.531 56.22C366.045 59.6402 366.225 63.1022 366.068 66.5572C365.467 66.9646 364.776 67.2223 364.055 67.309C361.37 67.7655 360.752 67.1211 360.618 67.8192C360.602 67.8775 360.599 67.9385 360.608 67.9983C360.617 68.058 360.639 68.1151 360.672 68.1657C360.705 68.2164 360.748 68.2596 360.799 68.2924C360.85 68.3252 360.907 68.347 360.967 68.3562V68.3562ZM356.429 50.662C356.429 49.8028 353.959 49.3732 352.348 49.7223C350.737 50.0713 348.535 51.7629 349.153 52.4073C349.77 53.0517 356.322 51.4407 356.429 50.662ZM354.657 57.0792V59.3883C354.657 59.6945 354.779 59.9881 354.995 60.2047C355.212 60.4212 355.505 60.5428 355.812 60.5428C356.118 60.5428 356.412 60.4212 356.628 60.2047C356.845 59.9881 356.966 59.6945 356.966 59.3883V57.1597C356.974 56.8509 356.86 56.5514 356.649 56.3256C356.438 56.0997 356.147 55.9654 355.839 55.9515C355.534 55.9512 355.242 56.0682 355.022 56.2783C354.801 56.4884 354.671 56.7753 354.657 57.0792V57.0792ZM377.56 51.7629C377.775 51.4407 376.916 49.7223 374.875 49.0779C372.835 48.4335 371.277 49.4538 371.277 49.9371C371.277 50.4204 377.157 52.3536 377.56 51.7629ZM353.503 74.1021C352.885 74.29 352.885 78.1564 356.563 79.2573C358.443 79.7943 360.994 79.4989 361.047 78.8277C361.101 78.1564 357.396 77.3509 356.188 76.5186C354.979 75.6862 354.013 73.941 353.503 74.1021V74.1021ZM373.882 55.495C373.73 55.4915 373.579 55.5178 373.438 55.5726C373.296 55.6273 373.167 55.7094 373.057 55.8141C372.948 55.9188 372.86 56.0441 372.798 56.1829C372.737 56.3216 372.704 56.4711 372.7 56.6227V58.905C372.743 59.1843 372.884 59.4392 373.098 59.6233C373.313 59.8075 373.586 59.9088 373.868 59.9088C374.151 59.9088 374.424 59.8075 374.638 59.6233C374.853 59.4392 374.994 59.1843 375.036 58.905V56.6764C375.04 56.5226 375.013 56.3695 374.956 56.2263C374.9 56.0832 374.815 55.9527 374.708 55.8426C374.6 55.7326 374.472 55.6451 374.33 55.5854C374.188 55.5257 374.036 55.495 373.882 55.495V55.495Z" fill="#232323"/>
</svg>
