<svg width="536" height="381" viewBox="0 0 536 381" fill="none" xmlns="http://www.w3.org/2000/svg">
<path d="M220.538 87.9481C215.968 87.3566 175.4 87.3566 168.121 87.9481C167.997 87.9753 167.887 88.0483 167.814 88.1527C167.74 88.2571 167.709 88.3852 167.726 88.5115C167.752 88.6058 167.802 88.6917 167.872 88.7609C167.941 88.83 168.027 88.8799 168.121 88.9058C174.666 89.4691 215.884 89.7226 220.397 89.1311C221.046 89.0748 221.244 88.0326 220.538 87.9481ZM411.108 158.421C410.543 158.421 403.293 160.984 405.211 162.027L407.243 163.717C406.791 164.731 411.22 169.35 408.174 180.222C406.904 179.349 406.876 180.222 407.045 180.504C411.757 185.349 445.413 212.248 452.917 217.121C453.594 218.106 457.882 215.994 458.559 215.769C473.465 209.424 488.015 202.278 502.146 194.362C507.309 191.545 507.253 181.433 500.99 177.462C494.402 173.088 487.542 169.137 480.452 165.632L489.197 158.787C489.818 158.309 489.479 156.534 487.11 158.449C482.007 150.217 479.941 140.464 481.27 130.874C481.608 130.677 485.389 128.424 483.724 127.691C475.261 124.17 447.218 113.89 438.586 113.354C435.765 113.157 413.195 131.184 411.079 134.817C406.566 142.338 407.948 150.929 411.249 158.506L411.108 158.421ZM408.851 180.645C411.672 177.575 410.797 169.153 409.443 165.435C413.308 168.533 444.369 191.911 454.243 198.164C459.575 209.431 453.622 214.895 453.82 215.74C437.288 204.277 423.831 191.179 408.851 180.645ZM500.792 179.377C505.504 181.8 504.432 191.883 501.046 193.066C485.699 201.263 470.521 208.642 454.666 215.6C456.749 212.795 457.885 209.402 457.911 205.91L479.634 197.01C480.029 196.812 479.634 196.277 479.323 196.362C472.03 198.796 464.889 201.665 457.939 204.953C457.884 202.215 457.031 199.552 455.484 197.291C462.114 194.672 495.996 177.124 500.792 179.377ZM453.764 150.76C462.064 143.898 470.748 137.513 479.775 131.635C479.116 135.06 478.992 138.566 479.408 142.028C478.025 142.479 460.929 154.985 460.055 155.661C459.688 155.943 460.055 156.534 460.506 156.309L479.605 143.352C480.198 147.324 482.596 156.365 486.291 158.816C482.539 161.858 463.976 176.532 459.462 176.532C456.078 173.273 453.736 169.086 452.732 164.499C451.728 159.913 452.106 155.132 453.82 150.76H453.764ZM450.068 126.452C452.043 128.142 443.861 132.902 443.551 132.987C442.62 133.268 441.999 132.311 444.002 130.395C445.018 129.522 448.742 125.41 450.068 126.48V126.452ZM434.693 131.156C436.103 128.339 441.971 123.663 444.454 121.973C444.576 121.888 444.714 121.828 444.859 121.796C445.005 121.764 445.155 121.761 445.302 121.788C445.449 121.814 445.589 121.869 445.714 121.949C445.84 122.029 445.948 122.133 446.034 122.255C446.119 122.377 446.179 122.515 446.211 122.66C446.243 122.806 446.246 122.956 446.22 123.102C446.194 123.249 446.139 123.389 446.058 123.514C445.978 123.639 445.874 123.747 445.751 123.833C443.551 125.523 437.57 131.128 435.906 132.283C435.78 132.352 435.64 132.388 435.497 132.388C435.353 132.388 435.213 132.352 435.087 132.283C434.989 132.237 434.9 132.173 434.826 132.092C434.752 132.012 434.696 131.918 434.659 131.816C434.622 131.714 434.606 131.605 434.612 131.497C434.618 131.388 434.645 131.282 434.693 131.184V131.156ZM413.985 136.029C426.088 139.307 437.978 143.324 449.588 148.056C450.322 148.422 450.068 149.661 449.193 149.492C437.099 146.128 425.219 142.036 413.618 137.24C413.49 137.168 413.389 137.054 413.334 136.917C413.278 136.78 413.272 136.628 413.314 136.487C413.357 136.346 413.447 136.223 413.569 136.14C413.691 136.057 413.838 136.017 413.985 136.029ZM411.898 159.773C425.354 167.35 450.406 176.983 459.857 178.391C461.747 178.673 477.095 167.913 479.605 166.083C481.242 167.688 494.868 175.378 498.338 177.518C493.316 177.772 456.867 194.728 454.243 196.39C438.586 184.701 422.336 172.843 406.283 161.717L411.926 159.773H411.898ZM220.538 87.9481H220.567H220.538ZM266.354 34.2624C266.182 34.192 265.99 34.192 265.818 34.2624C264.154 35.2764 254.533 48.3458 252.587 50.7963C250.725 48.2613 248.835 45.7544 246.945 43.3039C246.578 42.8533 245.816 43.3039 246.098 43.8954C247.988 46.9093 250.02 49.8104 252.079 52.7116C252.418 53.1623 253.066 52.9369 253.349 52.5708C255.126 50.3174 266.439 36.6848 266.918 35.1356C266.939 35.0412 266.941 34.9437 266.924 34.8487C266.906 34.7536 266.871 34.6629 266.818 34.5818C266.766 34.5006 266.698 34.4306 266.618 34.3758C266.538 34.321 266.449 34.2825 266.354 34.2624ZM212.555 93.4125C195.628 93.7505 176.867 93.4125 169.588 94.0321C169.439 94.0321 169.295 94.0915 169.189 94.1971C169.084 94.3028 169.024 94.4461 169.024 94.5955C169.024 94.7449 169.084 94.8882 169.189 94.9938C169.295 95.0995 169.439 95.1588 169.588 95.1588C178.334 95.1588 205.558 96.0602 212.555 94.5673C213.147 94.4265 213.034 93.5815 212.555 93.4125ZM213.175 65.1049C213.739 65.1049 213.909 64.1473 213.175 64.0628C207.533 63.2178 173.679 64.8796 165.47 66.1471C165.32 66.1471 165.176 66.2065 165.071 66.3121C164.965 66.4178 164.905 66.561 164.905 66.7104C164.905 66.8599 164.965 67.0031 165.071 67.1088C165.176 67.2144 165.32 67.2738 165.47 67.2738C176.528 67.2738 201.665 65.5556 213.034 65.1613L213.175 65.1049ZM201.947 70.7383C202.427 70.7383 202.681 69.7806 201.947 69.6116C199.126 68.9074 170.914 69.6116 166.654 70.0905C166.587 70.1007 166.523 70.1242 166.465 70.1597C166.407 70.1951 166.357 70.2418 166.318 70.297C166.278 70.3521 166.25 70.4146 166.235 70.4807C166.221 70.5468 166.219 70.6153 166.231 70.6819C166.246 70.7915 166.295 70.8937 166.371 70.9744C166.447 71.0551 166.546 71.1104 166.654 71.1326C172.099 71.4425 198.618 71.6396 201.947 70.7383ZM262.094 86.23C263.646 83.9766 246.634 84.7935 245.901 85.554C245.167 86.3145 245.901 97.891 245.901 98.9613C245.901 100.623 261.671 100.595 262.292 100.116C262.995 95.533 262.995 90.8695 262.292 86.2863L262.094 86.23ZM260.881 98.8486C259.386 98.8486 248.299 99.0458 247.396 98.3416C247.396 94.3701 247.142 90.4268 247.001 86.4835H261.107C260.599 90.586 260.523 94.7304 260.881 98.8486Z" fill="#232323"/>
<path d="M460.985 164.505C464.935 162.167 468.969 159.886 472.778 157.351C473.314 156.985 472.778 156.027 472.157 156.365L460.562 163.857C460.497 163.921 460.456 164.006 460.446 164.096C460.436 164.187 460.458 164.278 460.508 164.355C460.558 164.431 460.632 164.488 460.719 164.515C460.807 164.543 460.901 164.539 460.985 164.505ZM432.548 195.432C432.21 195.207 431.758 195.742 432.097 196.024C434.918 198.474 448.798 208.164 451.845 210.304C452.24 210.586 452.578 209.938 452.212 209.656C446.287 205.15 438.839 199.207 432.548 195.432ZM249.794 76.428C251.261 76.428 262.743 77.7518 262.63 75.8646C262.517 73.9775 262.348 63.1333 261.614 62.7953C261.417 60.9081 247.113 62.2883 245.787 62.5418C244.969 62.5418 245.308 73.5268 245.364 74.8506C245.449 76.766 248.524 76.3716 249.794 76.428ZM260.881 63.4431V75.3013C256.129 74.8131 251.345 74.7189 246.577 75.0196C246.764 71.1601 246.689 67.2924 246.352 63.4431C248.693 63.4431 259.385 63.8093 260.881 63.4431ZM451.224 204.896C451.295 204.956 451.385 204.989 451.478 204.989C451.571 204.989 451.661 204.956 451.732 204.896C451.787 204.834 451.818 204.754 451.818 204.671C451.818 204.588 451.787 204.508 451.732 204.446C438.811 195.291 425.975 184.278 413.28 175.687C412.913 175.406 412.349 175.941 412.715 176.307C419.825 183.067 442.027 198.84 451.337 205.037L451.224 204.896ZM487.363 188.729H487.42H487.363ZM262.573 44.2616C262.534 44.1358 262.447 44.0301 262.332 43.967C262.216 43.904 262.08 43.8884 261.953 43.9236C261.868 43.9436 261.789 43.9853 261.725 44.0445C261.661 44.1037 261.613 44.1785 261.586 44.2616V54.1199H245.957C245.683 49.5807 245.174 45.0586 244.433 40.5718C248.846 40.7764 253.268 40.6634 257.665 40.2338C257.764 40.2019 257.849 40.1369 257.905 40.0496C257.962 39.9623 257.986 39.8582 257.975 39.7549C257.959 39.695 257.93 39.639 257.891 39.5906C257.853 39.5421 257.804 39.5022 257.749 39.4733C256.705 39.1353 243.643 38.0086 244.038 40.2619C242.741 40.2619 244.631 54.3453 244.631 54.3453C245.308 56.0634 248.157 55.4719 249.652 55.4719C251.148 55.4719 261.53 55.7254 262.376 55.4719C263.73 54.9368 262.968 45.9234 262.658 44.2053L262.573 44.2616Z" fill="#232323"/>
<path d="M535.182 299.79C499.24 301.987 463.29 303.865 427.329 305.423C426.859 300.286 425.915 295.204 424.508 290.241C460.243 289.302 495.977 288.204 531.712 286.946C531.894 286.924 532.064 286.843 532.197 286.716C532.329 286.589 532.416 286.422 532.445 286.242C532.469 286.022 532.406 285.801 532.269 285.627C532.132 285.453 531.932 285.34 531.712 285.312C495.827 286.645 459.951 287.744 424.085 288.608C415.621 259.145 397.763 231.119 376.943 208.924C376.294 201.432 376.266 197.657 373.05 190.137C366.844 175.913 359.988 172.955 360.157 176.335C360.156 177.225 360.298 178.11 360.581 178.955C359.452 177.546 351.158 168.927 349.465 173.575C348.217 172.791 346.808 172.298 345.343 172.132C343.878 171.966 342.394 172.132 341.002 172.617C335.726 164.167 326.896 164.167 321.254 161.35C310.477 155.717 315.442 137.747 323.37 131.043C323.37 131.043 357.421 130.395 357.449 129.973C358.07 122.002 364.869 0.687649 364.869 0.687649C280.968 -0.974185 190.691 0.687645 107.41 2.37765C106.846 2.37765 106.366 2.74382 106.423 3.25082C111.444 45.9234 123.773 133.268 123.773 133.268C125.804 134.085 310.223 131.212 321.254 131.043C316.536 136.18 313.954 142.918 314.031 149.887C314.596 167.632 328.73 160.083 340.296 173.068C332.792 176.279 331.833 185.771 334.654 192.559C335.167 193.861 335.86 195.084 336.714 196.193C336.832 198.839 337.587 201.419 338.914 203.713C342.525 210.558 348.957 212.924 349.296 213.938C349.296 229.88 352.653 249.315 355.841 264.863C345.092 259.23 313.213 245.794 280.432 244.837C282.293 228.697 296.258 226.669 294.34 215.881C300.18 215.656 306.019 215.43 311.859 215.149C313.326 215.149 311.718 210.642 311.549 209.882C309.179 199.46 306.8 189.057 304.411 178.673C304.045 177.265 302.408 167.801 301.026 167.801L282.829 168.139C278.823 164.336 269.429 162.928 265.592 167.35C259.95 156.506 242.515 158.083 241.951 168.617C237.183 165.378 230.102 164.73 225.786 169.124C225.334 169.322 139.994 170.476 127.299 170.983H127.073C126.936 171.07 126.839 171.208 126.802 171.366C126.765 171.524 126.792 171.69 126.876 171.828C127.102 173.293 119.738 208.051 118.864 216.416C118.864 217.599 131.644 217.43 132.97 217.43C114.745 238.753 98.354 262.807 93.4734 290.945C62.7228 290.467 31.9722 289.706 1.22161 289.819C1.07197 289.819 0.928455 289.878 0.822641 289.984C0.716828 290.089 0.657382 290.233 0.657382 290.382C0.657382 290.531 0.716828 290.675 0.822641 290.78C0.928455 290.886 1.07197 290.945 1.22161 290.945C31.8312 292.269 62.5254 292.41 93.1631 292.635C92.2504 298.22 91.8726 303.879 92.0347 309.535C61.5662 308.916 31.0977 307.958 0.657382 307.451C-0.0196953 307.451 -0.132542 308.521 0.657382 308.521C31.1259 310.071 61.6508 310.634 92.1757 311.085C92.9656 326.379 99.0029 345.138 114.011 352.011C120.19 364.122 133.28 375.023 147.865 371.896C147.442 374.093 147.047 376.347 146.624 378.6C146.455 379.614 147.978 380.037 148.147 379.023C152.295 356.715 156.611 334.294 163.861 312.775C164.087 312.099 163.071 311.845 162.817 312.493C155.765 331.196 151.787 350.856 148.119 370.432C133.195 372.601 121.29 363.108 115.112 350.264C111.788 343.478 109.865 336.093 109.458 328.549C109.051 321.005 110.168 313.457 112.742 306.353C120.444 286.636 140.954 272.553 161.097 262.92C181.577 253.229 203.573 247.122 226.124 244.865C227.732 259.906 245.054 265.004 258.257 264.215C271.46 263.427 279.275 259.399 280.403 246.104C280.573 246.104 328.053 247.146 369.044 274.496C381.09 282.524 392.036 292.833 398.44 305.93C404.703 318.577 406.904 334.097 401.262 347.279C393.193 366.488 378.467 369.277 368.706 370.995C365.254 350.37 358.591 330.412 348.957 311.845C348.704 311.366 347.914 311.676 348.168 312.183C358.214 333.812 365.066 356.782 368.508 380.375C368.508 381.107 369.975 381.304 369.975 380.375C369.861 377.796 369.521 375.233 368.959 372.713C379.599 371.8 389.45 366.74 396.381 358.63C418.95 352.997 428.796 328.632 427.414 307.169C463.449 305.705 499.447 303.827 535.408 301.536C536.395 301.17 536.028 299.79 535.182 299.79ZM123.886 115.467C118.243 79.6389 113.758 43.9798 108.651 8.12365C193.286 6.65899 280.121 7.27866 363.599 5.87032L357.082 111.524C321.846 112.594 128.428 113.692 123.886 115.467ZM294.001 214.304C293.485 212.802 292.495 211.507 291.18 210.614C292.643 208.292 293.434 205.611 293.465 202.868H294.989L297.105 214.135L294.001 214.304ZM291.632 193.658C292.114 193.269 292.558 192.835 292.957 192.362C293.635 195.376 294.199 198.39 294.763 201.403H293.409C293.547 198.707 292.932 196.025 291.632 193.658ZM310.928 213.571L297.951 214.135C297.612 210.332 296.879 206.586 296.202 202.868C300.257 203.003 304.318 202.899 308.361 202.558C309.207 206.192 310.082 209.91 310.928 213.571ZM308.107 201.263H295.976L293.945 190.7L305.653 190.362L308.107 201.263ZM305.286 189.151L294.255 189.489C294.467 188.153 294.372 186.787 293.976 185.493C293.58 184.2 292.894 183.014 291.97 182.025C291.801 181.18 291.632 180.307 291.406 179.433L303.029 179.18L305.286 189.151ZM300.97 169.04C301.59 171.857 302.154 174.87 302.719 177.8L291.124 177.997C290.531 175.036 289.768 172.111 288.839 169.237L300.97 169.04ZM290.306 180.983C288.932 180.359 287.38 180.249 285.933 180.673C286.062 180.324 286.166 179.966 286.243 179.602H289.967L290.306 180.983ZM287.484 169.265C288.013 172.222 288.71 175.147 289.572 178.025H286.441C286.764 174.904 285.897 171.777 284.014 169.265H287.484ZM219.184 170.476H224.629C223.479 172.251 223.074 174.406 223.501 176.476L218.705 177.856C218.93 175.434 219.184 172.73 219.184 170.476ZM217.661 170.476V178.335C217.183 178.619 216.721 178.929 216.278 179.264L202.934 179.49C203.058 176.568 202.973 173.64 202.68 170.73L217.661 170.476ZM211.736 190.897H202.85V181.039L214.416 180.842C213.193 182.179 212.311 183.792 211.844 185.542C211.378 187.293 211.341 189.13 211.736 190.897ZM202.906 203.938H210.608C210.717 206.396 211.628 208.75 213.203 210.642C212.273 211.285 211.524 212.157 211.03 213.173C210.535 214.19 210.312 215.317 210.382 216.444H202.765C202.85 212.219 202.906 208.079 202.906 203.938ZM211.37 200.53C211.122 201.118 210.942 201.733 210.834 202.361H203.047V192.193H212.16C212.772 193.874 213.872 195.335 215.319 196.39C213.556 197.301 212.133 198.752 211.257 200.53H211.37ZM201.919 216.416H166.965C167.331 211.572 166.965 208.53 170.096 204.361L201.608 203.995C201.58 208.135 201.665 212.276 201.806 216.416H201.919ZM171.253 202.812C174.188 199.849 176.408 196.255 177.741 192.306H184.794V202.643L171.253 202.812ZM186.6 171.04L201.383 170.786C201.224 173.704 201.224 176.628 201.383 179.546L186.515 179.8C186.515 176.898 186.543 173.969 186.6 171.04ZM186.402 181.349L201.326 181.095V190.954H186.205C186.205 187.743 186.205 184.56 186.402 181.349ZM186.205 192.277H201.467V202.446L185.584 202.643C185.81 199.178 185.979 195.826 186.205 192.277ZM172.099 171.293L185.612 171.068L185.302 179.828L171.535 180.053C171.87 177.146 171.974 174.217 171.845 171.293H172.099ZM171.422 181.574L185.274 181.349L185.02 190.925H178.108C178.447 189.376 179.067 186.841 177.234 185.996C175.4 185.151 173.651 189.376 170.265 190.897C170.576 187.799 170.858 184.701 171.168 181.602L171.422 181.574ZM159.347 171.519L170.999 171.321C170.596 174.227 170.341 177.15 170.237 180.081H169.278C170.491 177.124 163.946 175.208 158.304 180.081C158.388 178.645 159.178 172.476 159.094 171.519H159.347ZM169.87 181.743C169.673 184.813 169.504 187.855 169.306 190.925H164.905C164.059 188.447 164.905 182.616 167.162 181.743H169.814H169.87ZM157.655 171.603L157.203 180.335H151.928C149.84 175.997 151.166 172.702 149.107 171.659L157.655 171.603ZM156.526 181.912C155.876 182.726 155.326 183.615 154.89 184.56L152.802 181.997L156.526 181.912ZM138.499 171.969L147.555 171.8C144.734 173.152 144.311 177.941 144.311 180.56H140.051C138.612 179.321 137.991 180.56 136.919 180.56L138.443 171.8L138.499 171.969ZM144.762 186.278C143.197 185.235 141.924 183.81 141.066 182.137H144.254C144.288 183.525 144.42 184.909 144.649 186.278H144.762ZM135.424 190.503L136.778 182.222C136.495 185.081 136.852 187.967 137.822 190.672L135.424 190.503ZM138.245 191.883C139.402 195.742 141.066 199.263 141.856 203.15L133.393 203.319L135.086 191.855L138.245 191.883ZM128.004 171.997H137.258C136.722 174.814 136.214 177.856 135.706 180.814C132.631 180.814 129.528 180.983 126.453 181.123C127.117 178.113 127.598 175.066 127.892 171.997H128.004ZM126.255 182.278H135.424C135.001 185.095 134.549 187.912 134.098 190.531H124.647C125.127 187.714 125.635 184.982 126.142 182.278H126.255ZM124.534 191.517C127.638 191.686 130.741 191.77 133.844 191.827C133.308 195.629 132.688 199.488 132.18 203.319C128.879 203.319 125.578 203.544 122.277 203.685C123.039 199.629 123.773 195.573 124.534 191.517ZM130.882 215.937H119.992C120.698 212.163 121.431 208.417 122.193 204.671L131.982 204.924C131.387 208.572 130.982 212.248 130.769 215.937H130.882ZM131.672 215.937L133.336 204.671H142.11C142.195 205.42 142.195 206.175 142.11 206.924L134.183 215.966L131.672 215.937ZM112.46 302.494C109.16 310 107.511 318.126 107.623 326.323C107.734 334.519 109.605 342.597 113.109 350.011C85.7999 331.59 91.6115 290.861 103.235 264.835C112.742 243.513 127.807 225.401 143.239 208.023C145.496 205.459 138.189 188.306 137.935 184.109C137.766 180.983 139.063 180.335 140.22 182.56C141.377 184.785 143.041 187.32 145.326 187.855C146.229 190.503 146.934 189.658 146.822 189.235C145.862 184.588 144.198 177.969 147.301 173.687C149.558 170.702 149.473 176.194 149.699 177.265C150.235 179.828 152.52 184.785 154.58 185.715C153.874 187.714 155.059 187.01 155.144 186.757C159.15 176.251 171.394 177.743 167.444 180.335C166.403 180.955 165.518 181.806 164.858 182.822C164.197 183.838 163.779 184.991 163.636 186.193C162.197 196.136 170.04 194.643 175.738 187.714C178.108 184.898 178.221 190.954 174.469 197.066C171.281 202.248 166.965 204.107 166.457 210.896C165.046 227.486 161.633 247.287 159.347 261.877C140.615 270.919 121.459 283.143 112.347 302.522L112.46 302.494ZM160.814 261.117C163.569 246.795 165.537 232.333 166.711 217.796H210.467C212.103 227.232 223.839 228.5 225.729 243.147C203.213 245.344 181.249 251.425 160.814 261.117ZM279.924 238.386C279.221 240.602 278.767 242.888 278.57 245.203C277.441 257.145 272.363 261.117 259.075 262.103C244.97 263.258 229.679 258.807 227.535 243.625C225.645 230.105 221.3 231.288 214.332 221.824C212.244 219.008 210.382 213.769 214.332 211.572C216.272 213.7 218.703 215.324 221.413 216.304C227.507 229.964 229.566 245.71 247.283 247.456C281.532 250.639 273.858 232.021 284.72 215.768C286.831 214.794 288.744 213.438 290.362 211.769C291.594 212.797 292.444 214.208 292.776 215.776C293.109 217.344 292.904 218.978 292.196 220.416C289.431 227.092 282.773 229.626 279.924 238.386ZM349.832 175.208C350.791 177.349 351.779 179.462 352.653 181.602C351.271 179.828 344.5 172.448 342.243 176.391C341.086 178.448 343.513 181.518 344.5 183.349C340.713 184.018 337.329 186.116 335.049 189.207C331.438 176.11 344.19 169.575 349.832 175.208ZM337.08 194.39C336.544 193.066 335.98 191.714 335.416 190.39C337.891 187.496 341.219 185.456 344.923 184.56C346.51 187.831 347.54 191.344 347.97 194.953C348.732 202.164 343.202 197.009 340.522 194.531C339.478 193.46 337.729 193.01 336.939 194.39H337.08ZM398.158 356.095C407.496 343.026 407.891 326.154 402.475 311.394C394.801 290.523 376.548 275.904 357.336 265.68C353.642 248.647 351.247 231.36 350.171 213.966C350.171 211.318 341.199 209.515 338.406 199.122C337.898 197.235 336.855 192.277 340.268 195.826C343.682 199.375 349.493 202.643 349.24 194.869C348.901 185.658 342.638 179.518 343.202 177.434C343.908 174.814 349.127 179.743 349.973 180.588C352.178 183.01 354.178 185.611 355.954 188.362C356.264 188.813 357.026 188.362 356.744 187.94C356.086 186.813 355.408 185.686 354.713 184.56C355.164 183.602 350.086 174.645 350.989 173.8C351.891 172.955 355.954 175.884 356.857 176.617C361.568 180.701 361.794 183.433 363.402 185.546C363.475 185.571 363.554 185.571 363.627 185.546C363.728 185.554 363.828 185.523 363.906 185.461C363.985 185.398 364.037 185.307 364.051 185.208C363.881 183.405 362.837 182.391 362.33 181.152C361.822 179.912 360.778 177.124 361.483 176.138C361.822 175.856 363.768 177.293 363.994 177.518C365.855 179.298 367.409 181.373 368.593 183.658C377.225 198.39 374.63 207.882 376.097 209.318C397.51 233.401 420.389 268.666 425.016 300.494C428.147 322.577 421.179 348.321 398.017 356.095H398.158Z" fill="#232323"/>
<path d="M193.54 49.3597C194.189 49.1625 193.935 48.233 193.343 48.1485C183.074 48.3457 172.156 48.1485 162.028 48.4302C161.238 48.4302 161.351 49.6414 162.028 49.754C167.219 50.599 189.026 50.7399 193.54 49.3597ZM462.876 199.995C466.713 198.333 485.445 190.785 487.674 189.517C487.716 189.48 487.75 189.435 487.773 189.384C487.796 189.333 487.808 189.277 487.808 189.221C487.808 189.165 487.796 189.11 487.773 189.059C487.75 189.008 487.716 188.963 487.674 188.926C487.628 188.857 487.564 188.803 487.49 188.768C487.415 188.733 487.333 188.72 487.251 188.729C482.511 189.714 467.164 197.01 462.396 199.376C462.142 199.573 462.481 200.164 462.876 199.995ZM273.661 133.86L213.852 134.761C216.42 163.716 274.423 164.167 273.661 133.86ZM273.661 71.8931C273.661 72.0153 273.707 72.133 273.791 72.2221C273.875 72.3111 273.99 72.3647 274.112 72.3719C283.676 72.5972 303.904 73.1887 311.549 72.1466C312.17 72.1466 311.972 71.1044 311.549 71.1044C300.744 71.1044 285.143 71.1044 274.253 71.4142C274.182 71.3969 274.107 71.3963 274.035 71.4124C273.963 71.4286 273.896 71.4611 273.839 71.5074C273.781 71.5537 273.735 71.6126 273.705 71.6795C273.674 71.7464 273.659 71.8195 273.661 71.8931ZM191.847 29.643C192.637 29.643 192.299 28.5164 191.65 28.4037C172.212 28.967 151.054 29.3895 132.095 29.812C132.032 29.8222 131.971 29.845 131.917 29.879C131.862 29.9131 131.815 29.9577 131.778 30.0102C131.742 30.0628 131.716 30.1222 131.702 30.1849C131.689 30.2476 131.688 30.3124 131.7 30.3754C131.717 30.474 131.764 30.5651 131.834 30.6359C131.905 30.7066 131.997 30.7534 132.095 30.7697C145.891 31.7555 173.933 30.2627 191.847 29.643ZM202.709 23.1929C203.358 23.1929 203.555 22.0662 202.709 21.9817C196.39 21.2212 134.07 22.2352 129.726 23.1929C129.302 23.1929 129.331 24.0378 129.726 24.0378C145.722 24.0097 184.061 22.9112 202.709 23.1929ZM80.0732 224.388V224.359V224.388ZM81.2581 224.866C83.4316 220.853 85.0993 216.586 86.2233 212.163C86.7486 210.643 86.8687 209.013 86.572 207.433C86.2752 205.852 85.5717 204.376 84.5306 203.15C85.5546 200.577 86.0811 197.834 86.0823 195.066C85.518 190.475 80.6375 190.756 78.0138 194.277C67.4344 208.361 55.7548 230.894 56.0934 248.217C55.8959 249.033 56.3191 249.963 57.0526 249.287C69.5776 236.897 78.8423 221.61 84.0228 204.783C87.5493 210.022 82.1045 219.064 80.0732 224.359C79.8193 225.064 80.8913 225.486 81.2581 224.866ZM57.1654 247.062C57.3724 243.936 57.8061 240.83 58.4632 237.767L62.8077 240.893C60.974 242.921 59.0838 245.034 57.1654 247.062ZM83.374 201.995C81.4636 200.394 79.1692 199.317 76.716 198.868C77.6587 197.149 78.7945 195.543 80.1014 194.08C81.3709 192.897 83.7971 192.418 84.5306 194.418C84.7797 196.982 84.382 199.567 83.374 201.939V201.995ZM155.172 58.5139C153.931 59.0209 146.709 69.7806 145.383 71.6677C143.741 69.49 141.848 67.514 139.741 65.7809C139.623 65.7264 139.49 65.7164 139.365 65.7526C139.241 65.7889 139.133 65.869 139.064 65.9781C139.022 66.087 139.022 66.2071 139.064 66.3161C140.672 68.9459 142.564 71.3922 144.706 73.6112C144.783 73.6958 144.876 73.7634 144.981 73.8097C145.085 73.856 145.198 73.8799 145.312 73.8799C145.427 73.8799 145.54 73.856 145.644 73.8097C145.749 73.7634 145.842 73.6958 145.919 73.6112V73.4704L155.172 60.8517C156.47 59.0209 156.103 58.035 155.172 58.5139ZM324.442 43.7264C325.034 43.7264 325.147 42.5997 324.442 42.5152C306.84 41.6412 289.199 41.8952 271.63 43.2757C271.037 43.2757 271.094 44.3179 271.63 44.2897C284.946 44.177 309.913 44.5995 324.442 43.7264Z" fill="#232323"/>
<path d="M155.172 75.5828C156.301 75.1322 154.044 66.7385 153.733 65.4146C153.724 65.3555 153.703 65.2987 153.672 65.2475C153.641 65.1964 153.6 65.1519 153.551 65.1166C153.503 65.0813 153.448 65.0559 153.39 65.0417C153.331 65.0276 153.271 65.0251 153.211 65.0344C153.152 65.0436 153.095 65.0645 153.044 65.0956C152.993 65.1268 152.948 65.1678 152.913 65.2162C152.878 65.2646 152.852 65.3194 152.838 65.3777C152.824 65.4359 152.821 65.4963 152.831 65.5555C153.169 68.5693 153.508 71.6113 154.072 74.5688C149.361 74.935 145.101 74.9068 140.502 75.104C139.656 71.4423 138.922 66.654 137.681 63.0205C141.229 63.3183 144.797 63.3183 148.345 63.0205C150.686 63.0205 150.517 61.5558 148.514 61.584C147.329 61.584 137.23 61.3868 137.23 62.598C135.904 62.598 138.697 74.3998 138.866 75.1885C138.895 75.3289 138.968 75.4564 139.075 75.5526C139.181 75.6488 139.315 75.7087 139.458 75.7237C139.797 77.1883 154.636 76.963 155.172 75.5828ZM326.021 65.6963C325.996 65.5868 325.936 65.4887 325.849 65.4174C325.762 65.346 325.654 65.3054 325.542 65.302C308.446 64.8513 290.164 65.6681 272.843 65.64C272.335 65.64 272.307 66.485 272.843 66.5413C288.02 67.5553 311.492 68.175 325.655 66.316C325.782 66.2767 325.89 66.1915 325.958 66.0769C326.026 65.9623 326.048 65.8266 326.021 65.6963ZM139.853 55.2183C143.811 55.3285 147.771 55.1496 151.702 54.6831C154.156 55.3028 150.404 39.9238 149.953 39.2196C149.894 39.0869 149.793 38.9769 149.666 38.9058C149.539 38.8348 149.392 38.8066 149.248 38.8253C146.709 38.8253 134.916 38.8253 133.252 39.1915C131.22 37.5578 134.183 51.444 134.606 53.1058C135.424 55.8943 137.23 55.2183 139.853 55.2183ZM133.59 40.1491C138.796 40.7838 144.054 40.8594 149.276 40.3745L151.081 53.3875L136.299 54.148C136.411 53.1903 133.929 42.0081 133.59 40.1491ZM312.649 49.6413C312.799 49.6413 312.942 49.5819 313.048 49.4763C313.154 49.3706 313.213 49.2274 313.213 49.078C313.213 48.9286 313.154 48.7853 313.048 48.6796C312.942 48.574 312.799 48.5146 312.649 48.5146C309.151 47.8105 279.077 48.8808 272.843 49.416C272.363 49.416 272.363 50.2328 272.843 50.261C276.228 50.4018 309.292 50.4863 312.649 49.6413ZM75.7565 138.986C76.2926 138.986 80.2704 136.733 81.2014 140.394C82.4991 145.408 87.5772 142.394 88.3953 138.564C89.4392 133.832 84.9253 130.114 79.5933 130.114C68.7601 130.114 71.2427 139.493 75.7565 138.986ZM79.5933 131.212C85.687 131.409 89.4392 137.155 85.7434 140.535C82.5837 143.352 82.9223 139.296 81.3989 137.719C78.352 134.902 75.9258 138.31 74.2049 136.874C70.6785 134.057 77.421 131.043 79.5933 131.212ZM145.665 85.3285C141.236 85.3285 141.066 84.5962 141.631 88.9057C141.8 90.1168 142.674 98.6795 144.141 98.764C144.452 100.116 157.119 99.6372 158.727 99.1583C160.899 99.1583 158.727 92.4828 158.727 91.7223C156.865 81.9203 159.178 84.9623 145.665 85.3285ZM144.847 98.1162C144.141 94.5672 143.605 89.8633 142.59 86.4833C147.209 86.934 151.868 86.7635 156.442 85.9763C156.729 89.898 157.342 93.789 158.275 97.6092C153.874 97.8063 149.304 98.0317 144.847 98.1162ZM330.451 21.5309C325.26 21.0521 250.499 21.5309 241.02 22.2633C240.897 22.2841 240.788 22.3515 240.714 22.4513C240.641 22.5511 240.609 22.6755 240.625 22.7984C240.645 22.8955 240.693 22.9846 240.763 23.0547C240.833 23.1248 240.923 23.1728 241.02 23.1928C249.06 23.6153 324.695 23.4181 330.451 22.7703C330.615 22.7703 330.773 22.705 330.889 22.5888C331.006 22.4726 331.071 22.315 331.071 22.1506C331.071 21.9863 331.006 21.8286 330.889 21.7124C330.773 21.5962 330.615 21.5309 330.451 21.5309ZM203.132 42.2335C203.781 42.0926 203.555 41.2195 202.991 41.1068L160.137 42.1771C160.075 42.1838 160.015 42.2033 159.961 42.2344C159.906 42.2655 159.859 42.3076 159.822 42.3579C159.785 42.4082 159.758 42.4657 159.745 42.5267C159.731 42.5878 159.73 42.6509 159.742 42.7123C159.759 42.811 159.806 42.9021 159.876 42.9728C159.947 43.0435 160.039 43.0903 160.137 43.1066C170.886 43.8953 193.794 44.1206 203.132 42.2335ZM373.05 121.41C373.248 123.551 375.392 144.901 376.182 146.45C381.824 157.435 402.588 157.717 403.039 141.465C403.829 134.705 406.565 115.298 405.493 110.481C405.804 108.904 407.44 102.031 407.75 98.3978C407.75 97.8063 408.879 81.7232 406.622 84.1737C403.61 88.1778 400.939 92.4271 398.638 96.8768C398.243 98.595 397.848 100.285 397.425 101.975C396.177 101.505 394.881 101.174 393.56 100.989C393.56 99.8343 392.714 94.201 392.319 91.9477C390.372 88.1733 388.369 84.7933 386.676 80.8781C384.278 74.9913 384.222 74.8787 383.545 81.357C382.414 87.9564 382.414 94.6996 383.545 101.299C370.765 103.947 372.091 111.467 373.022 121.41H373.05ZM403.913 90.4267C404.259 90.7599 404.672 91.0154 405.124 91.1757C405.577 91.3361 406.059 91.3976 406.537 91.3562V98.4542C405.349 98.5693 404.149 98.4441 403.01 98.086C401.871 97.7279 400.816 97.1442 399.907 96.3698C401.29 94.4263 402.729 92.4265 403.913 90.4267ZM399.851 97.8345C401.72 99.161 403.962 99.8612 406.255 99.8343C405.324 105.073 404.393 110.284 403.66 115.551C402.7 118.988 398.017 120.227 394.97 120.65C396.832 113.214 398.243 105.214 399.851 97.75V97.8345ZM394.209 118.622C394.071 119.329 393.977 120.044 393.927 120.762L387.043 120.931L384.222 94.3982C385.498 94.7827 386.848 94.8502 388.156 94.595C389.464 94.3397 390.689 93.7694 391.726 92.9335C391.726 92.9335 393.56 118.199 394.209 118.537V118.622ZM384.56 85.3848C384.993 85.4975 385.443 85.5207 385.885 85.4529C386.326 85.385 386.749 85.2277 387.128 84.9905L390.993 91.9195C389.979 92.6732 388.805 93.1824 387.562 93.4072C386.319 93.632 385.04 93.5663 383.827 93.2152C383.778 90.5579 384.024 87.9035 384.56 85.3003V85.3848ZM404.111 117.833C403.603 124.931 402.7 139.916 400.867 146.619C397.622 155.323 383.488 155.464 377.254 146.619C376.069 136.845 374.884 126.903 373.727 117.27C379.003 124.903 399.513 123.973 404.111 117.748V117.833Z" fill="#232323"/>
<path d="M24.8628 148.873C29.1566 151.111 33.6897 152.859 38.3761 154.083C29.3766 166.449 55.1338 184.081 78.6905 174.673C89.4955 170.364 100.301 156.675 89.7212 147.183C101.006 138.085 104.984 124.959 104.504 110.566C103.771 88.3705 93.9529 72.0338 71.4683 66.7666C60.3909 64.1785 48.7829 65.0738 38.2351 69.3298L33.8623 61.7811C35.2446 61.0488 36.6834 60.3446 38.094 59.725C41.8179 58.4575 40.6895 55.7253 38.489 56.5421C-4.73116 72.2873 -14.7181 129.043 24.8628 148.873ZM38.7147 152.112C37.9247 149.295 40.0406 146.478 39.0532 143.408C36.7963 136.113 27.3454 140.338 24.9474 135.409C22.3237 130.029 29.3202 129.1 30.7308 125.241C30.9803 124.565 31.0438 123.835 30.9148 123.127C30.7858 122.418 30.469 121.757 29.9973 121.213C25.9348 116.143 16.5404 121.495 19.2205 109.665C21.2517 100.736 29.8844 96.5107 36.1474 100.454C42.4104 104.397 46.1625 107.045 54.09 102.426C67.293 94.6798 65.6567 110.876 61.6225 115.777C59.4784 118.424 55.5852 118.284 52.5947 119.41C42.8335 123.072 42.89 129.635 50.6199 131.24C53.6104 131.86 57.4471 131.578 59.7887 133.832C66.1363 140 53.0179 153.182 48.8708 155.351C46.6421 154.9 39.8431 153.576 38.7147 152.112ZM74.5151 69.2453C91.1318 74.3998 99.9056 86.3988 102.275 103.552C103.402 110.955 103.124 118.504 101.457 125.804C100.78 126.734 91.2446 129.353 88.1695 125.41C86.9823 123.816 86.1896 121.964 85.8562 120.006C85.5228 118.048 85.6581 116.039 86.2512 114.143C88.0849 109.411 94.3197 105.242 92.4013 100.398C89.7494 93.694 81.9912 102.848 78.7187 100.961C73.8099 98.1443 83.0068 92.7363 72.5121 90.7928C68.6471 90.0887 65.4874 91.666 62.6381 87.4128C56.1212 77.6672 73.0763 69.2171 74.5151 69.1608V69.2453ZM42.3257 81.7232C42.4475 81.9152 42.6319 82.0593 42.8478 82.1311C43.0637 82.203 43.2979 82.1982 43.5106 82.1175C43.755 82.0172 43.9506 81.8258 44.056 81.5839C44.1613 81.342 44.1681 81.0686 44.0749 80.8218L38.9403 70.8226C49.4042 66.6335 60.9247 65.845 71.8633 68.5693C57.7575 73.2168 56.093 89.1028 66.2209 91.835C68.365 92.4265 77.957 91.5815 76.2925 95.6657C75.9546 96.3283 75.7652 97.0563 75.7373 97.7992C75.7093 98.5422 75.8436 99.2823 76.1308 99.9683C76.418 100.654 76.8512 101.27 77.4003 101.772C77.9495 102.274 78.6015 102.651 79.3111 102.876C83.2607 103.581 87.4925 97.6373 90.3983 100.06C95.4763 104.285 82.2169 110.819 84.4738 120.227C86.1665 127.438 89.1569 129.719 96.492 128.677C98.0987 128.539 99.6571 128.059 101.062 127.269C94.9967 148.478 72.3146 158.252 51.5791 155.689C55.7544 151.858 62.2431 144.253 62.8638 138.789C63.823 129.1 52.6794 131.043 48.5887 128.902C42.9464 126.086 51.0149 121.185 56.1776 120.058C57.8693 119.78 59.5068 119.238 61.03 118.453C69.4935 113.27 67.1519 92.4265 54.8799 100.116C44.3852 106.679 41.1409 101.102 36.2603 98.595C28.4456 94.6235 17.7252 100.877 17.1892 112.678C16.8789 120.706 23.5086 118.988 27.3736 121.128C28.0663 121.388 28.6446 121.884 29.0061 122.528C29.3676 123.173 29.4888 123.924 29.3484 124.649C28.4456 127.466 24.355 128.029 23.2265 131.437C22.7803 132.767 22.7966 134.207 23.2728 135.526C23.7489 136.845 24.6571 137.965 25.8502 138.704C29.5459 140.845 36.091 138.986 37.6426 144.084C38.4043 146.563 36.9091 149.098 37.0784 151.605C29.8806 149.022 23.5425 144.494 18.7705 138.526C13.9986 132.558 10.9802 125.385 10.0517 117.805C7.51266 98.6514 19.2205 80.0332 36.4295 71.893C38.2068 75.1603 40.4356 78.5403 42.3257 81.7232ZM16.9353 74.2027C21.1704 69.8181 26.0507 66.1043 31.4079 63.1895C32.9803 65.5981 34.4212 68.0898 35.7242 70.6537C26.8701 74.7605 19.5012 81.4957 14.6237 89.9395C9.74625 98.3834 7.59785 108.125 8.47185 117.833C9.05996 123.397 10.8069 128.778 13.6004 133.628C16.394 138.479 20.1726 142.693 24.6935 146C-2.27676 131.043 -3.40522 95.7783 16.9353 74.2027ZM318.037 94.0602C315.611 93.525 279.331 93.356 274.197 94.0602C274.069 94.0602 273.947 94.1106 273.858 94.2004C273.768 94.2902 273.717 94.412 273.717 94.539C273.717 94.666 273.768 94.7878 273.858 94.8776C273.947 94.9674 274.069 95.0178 274.197 95.0178C276.143 95.2995 314.06 95.9473 318.037 95.0178C318.169 94.9886 318.287 94.9155 318.371 94.8105C318.455 94.7056 318.501 94.575 318.501 94.4404C318.501 94.3058 318.455 94.1753 318.371 94.0703C318.287 93.9653 318.169 93.8922 318.037 93.863V94.0602ZM330.084 29.2768C302.86 29.5866 267.68 28.6571 243.136 29.2768C242.459 29.2768 242.515 30.2344 243.136 30.2908C253.433 31.4174 321.79 31.3329 330.084 30.2908C330.164 30.284 330.243 30.2607 330.314 30.2225C330.385 30.1843 330.448 30.1319 330.498 30.0685C330.548 30.0052 330.585 29.9323 330.606 29.8542C330.627 29.7762 330.632 29.6947 330.62 29.6148C330.575 29.5113 330.499 29.4238 330.404 29.3635C330.308 29.3032 330.197 29.273 330.084 29.2768ZM327.065 87.948C310.561 87.5818 289.939 88.5958 272.363 88.1452C271.855 88.1452 271.742 88.8775 272.363 88.9338C283.168 90.0042 316.994 91.0745 327.178 89.1028C327.714 88.962 327.77 87.948 327.065 87.948Z" fill="#232323"/>
</svg>
