<svg width="200" height="64" viewBox="0 0 200 64" fill="none" xmlns="http://www.w3.org/2000/svg">
<rect width="200" height="64" rx="12" fill="#232323"/>
<path fill-rule="evenodd" clip-rule="evenodd" d="M83.3 23.4V36.4H86.5H89.7V31.4C89.7 28.1 89.7 26.3 89.7 26.1C89.8 25.6 89.9 25.1 90.2 24.7C90.6 24 91.3 23.7 92.1 23.8C93.2 23.9 93.9 24.5 94.1 25.8C94.1 26 94.1 28 94.1 31.2V36.3H97.3H100.5V30.3C100.5 25.2 100.5 24.2 100.4 23.7C100.2 21.9 99.6 20.5 98.5 19.5C97.6 18.6 96.5 18.1 95.2 17.9C94.7 17.8 93.3 17.9 92.9 18C91.7 18.3 90.8 18.7 90 19.6L89.5 20V15.2V10.4H86.3H83.1V23.4H83.3ZM151.3 10.6C151.1 11 144.6 26.7 144.6 26.7C144.6 26.7 146.3 26.7 148.4 26.7H152.2L155.6 18.6C157.5 14.1 159 10.4 159 10.4C159 10.4 157.3 10.4 155.2 10.4H151.4L151.3 10.6ZM69.3 18C67.9 18.2 66.8 18.6 65.7 19.3C63.5 20.7 62.1 23.1 61.7 25.9C61.5 27.2 61.6 28.8 61.9 30C62.7 33.1 64.8 35.5 67.5 36.4C68.5 36.7 68.9 36.8 70.1 36.8C71 36.8 71.3 36.8 71.6 36.7C72.9 36.4 73.8 35.9 74.6 35.1L75 34.7V35.5V36.3H78.1H81.2V27.3V18.3H78.1H75V19.1V19.9L74.7 19.6C74 18.8 73 18.3 71.7 18C71.3 17.9 71.1 17.9 70.3 17.9C69.8 18 69.4 18 69.3 18ZM110.1 18C108.4 18.2 106.6 19 105.3 20C102.8 22.1 101.5 25.4 102 28.8C102.5 32.6 105.2 35.5 109 36.5C109.8 36.7 110.6 36.8 111.6 36.8C113.4 36.8 114.7 36.5 116.1 35.8C118.9 34.4 120.7 31.9 121.1 28.8C121.2 28 121.2 26.7 121.1 26C120.9 24.5 120.3 23 119.4 21.8C119 21.3 118.2 20.4 117.7 20C116.3 18.9 114.7 18.2 112.9 18C112.2 17.9 110.8 17.9 110.1 18ZM130.5 18C128.8 18.2 127.1 18.9 125.8 20C125.3 20.4 124.4 21.3 124.1 21.8C123.2 23 122.7 24.5 122.4 26C122.3 26.7 122.3 28.1 122.4 28.8C123 32.8 125.9 35.9 129.9 36.7C130.7 36.9 131.1 36.9 132 36.9C133.7 36.9 135.2 36.6 136.6 35.8C140.3 33.9 142.3 29.7 141.4 25.4C140.6 21.4 137.4 18.5 133.3 18C132.6 17.9 131.2 17.9 130.5 18ZM41 18.4C41 18.4 42.7 22.5 44.8 27.5C46.9 32.5 48.6 36.6 48.6 36.6C48.6 36.6 48 38.1 47.2 39.9C46.4 41.7 45.8 43.1 45.8 43.2C45.8 43.3 47.3 43.2 49.2 43.2H52.6L57.7 30.9C60.5 24.1 62.8 18.6 62.8 18.5C62.8 18.5 62.1 18.4 59.4 18.5H56L53.9 23.7C53 26.5 52.1 28.9 52.1 28.9C52.1 28.9 51.2 26.5 50 23.7L48 18.5H44.5C42.6 18.4 41 18.4 41 18.4ZM72.4 23.8C73.7 24.1 74.7 25.1 75.1 26.4C75.2 26.9 75.2 27.8 75.1 28.3C74.8 29.6 73.8 30.6 72.5 30.9C72 31 71.1 31 70.6 30.9C69.5 30.6 68.5 29.8 68.1 28.8C67.6 27.7 67.8 26.3 68.4 25.3C69.3 24 70.8 23.5 72.4 23.8ZM112.3 23.9C113.7 24.1 114.8 25.2 115.1 26.6C115.2 27.1 115.2 27.9 115.1 28.4C114.8 29.7 113.8 30.6 112.6 31C112.2 31.1 111.1 31.1 110.7 31C109.7 30.7 108.9 30 108.4 29.1C108.1 28.5 108.1 28.2 108.1 27.5C108.1 26.9 108.2 26.6 108.4 26.1C108.7 25.5 109.1 24.9 109.7 24.5C110.3 23.9 111.3 23.7 112.3 23.9ZM132.6 23.9C133.8 24.1 134.8 24.9 135.2 26C135.4 26.5 135.5 26.8 135.5 27.4C135.5 28.1 135.4 28.4 135.2 29C134.8 29.9 133.9 30.6 132.9 30.9C132.5 31 131.4 31 131 30.9C129.8 30.6 128.8 29.6 128.5 28.3C128.4 27.8 128.4 26.9 128.5 26.4C128.9 24.8 130.3 23.7 131.9 23.7C132.1 23.8 132.4 23.8 132.6 23.9ZM146.2 28.3C144.3 28.5 142.9 29.9 142.5 31.7C142.4 32.2 142.4 33.1 142.5 33.6C142.9 35.2 144.1 36.3 145.7 36.7C145.9 36.7 146.3 36.8 146.6 36.8C147.8 36.8 148.8 36.4 149.6 35.6C150.5 34.7 150.8 33.8 150.8 32.6C150.8 31.1 150.1 29.8 148.9 29.1C148.1 28.4 147 28.2 146.2 28.3ZM93.5 38.1C92.2 38.5 91.6 40 92.3 41.1C92.5 41.4 92.9 41.8 93.2 41.9C93.5 42 93.5 42 94.1 42C94.6 42 94.7 42 95 41.9C95.4 41.7 95.8 41.3 96 40.9C96.5 39.9 96 38.7 95 38.2C94.7 38 94.6 38 94.2 38C93.8 38 93.7 38 93.5 38.1ZM88.1 38.2C86.4 38.5 85.3 39.6 84.8 41.4C84.7 41.7 84.7 42 84.7 42.4V43.1H84H83.3V44.6V46.1H84H84.7V49.7V53.3H86.6H88.5V49.7V46.1H89.8H91.1V44.6V43.1H89.8H88.5V42.8C88.6 42.1 88.9 41.6 89.5 41.5C89.9 41.4 90.5 41.4 90.9 41.6C91.1 41.7 91.2 41.7 91.2 41.7C91.2 41.7 91.2 41 91.2 40.1V38.5L90.9 38.4C90.5 38.2 90 38.2 89.3 38.2C88.8 38.1 88.4 38.2 88.1 38.2ZM103.3 42.9C102.5 43.1 101.9 43.5 101.5 44L101.3 44.3V43.7V43.1H99.4H97.5V48.2V53.3H99.4H101.3V50.5C101.3 48.9 101.3 47.6 101.3 47.4C101.4 47 101.6 46.6 101.8 46.4C102.3 46 103.2 46.1 103.6 46.6C103.9 47 103.9 47 103.9 50.2V53.2H105.8H107.7V49.8C107.7 46.2 107.7 45.8 107.5 45.1C107.3 44.5 107.1 44 106.6 43.6C106.2 43.2 105.8 42.9 105.2 42.8C104.7 42.8 103.7 42.8 103.3 42.9ZM112.8 42.8C112.2 42.9 111.3 43.2 110.8 43.6C109.7 44.4 109 45.6 108.7 47.1C108.6 47.7 108.6 48.8 108.7 49.4C108.9 50.3 109.2 51.2 109.7 51.8C110.4 52.7 111.3 53.3 112.4 53.5C113 53.6 114 53.6 114.5 53.4C115.1 53.2 115.5 53 116 52.6L116.4 52.2V52.7V53.2H118.3H120.2V48.1V43H118.3H116.4V43.5V44L116.1 43.9C115.6 43.4 114.9 43 114.1 42.9C113.8 42.8 113.1 42.8 112.8 42.8ZM127.3 42.9C126.6 43 125.9 43.5 125.5 44L125.3 44.2V43.6V43H123.4H121.5V48.1V53.2H123.4H125.3V50.3C125.3 47.2 125.3 47.2 125.5 46.7C125.7 46.3 126.1 46.1 126.5 46.1C126.9 46.1 127.1 46.2 127.4 46.4C127.8 46.8 127.8 46.7 127.8 50.1V53.1H129.7H131.6V49.4C131.6 45.7 131.6 45.7 131.5 45.3C131.4 45.1 131.3 44.7 131.2 44.4C131 44 130.9 43.9 130.6 43.6C130.2 43.2 129.9 43 129.5 42.8C128.8 42.8 128 42.7 127.3 42.9ZM137.2 42.9C135.5 43.2 134.2 44 133.4 45.4C133.2 45.8 133 46.3 132.8 46.8C132.7 47.3 132.7 47.4 132.7 48.2C132.7 49.1 132.7 49.4 133 50.1C133.6 51.8 135 53.1 136.9 53.5C137.2 53.6 137.5 53.6 138.2 53.6C139.2 53.6 139.6 53.5 140.3 53.2L140.7 53V51.3V49.6L140.4 49.8C139.9 50.1 139.6 50.2 139 50.2C138.4 50.2 138.1 50.2 137.7 50C137.3 49.8 137 49.5 136.8 49.1C136.7 48.8 136.7 48.8 136.7 48.3C136.7 47.9 136.7 47.8 136.8 47.5C137.1 46.7 137.8 46.3 138.8 46.2C139.5 46.2 139.8 46.2 140.8 46.7C140.8 46.7 140.8 45.9 140.8 45V43.3L140.5 43.2C139.4 42.8 138.2 42.7 137.2 42.9ZM145.8 42.9C142.9 43.4 141.1 45.9 141.3 48.8C141.4 49.8 141.7 50.7 142.2 51.4C142.9 52.5 144 53.2 145.4 53.5C146 53.6 147.6 53.6 148.3 53.5C149.3 53.3 150.2 52.8 150.9 52.1C151.2 51.8 151.7 51.1 151.7 51.1C151.7 51.1 151 50.8 150.1 50.5L148.5 49.9L148.3 50.1C148 50.4 147.8 50.5 147.4 50.6C146.3 50.9 145.2 50.3 145 49.3V49.1H148.5H152V48.2C152 47.6 152 47.2 151.9 47C151.7 45.8 151.2 45 150.5 44.2C149.8 43.5 149 43.1 147.9 42.9C147.5 42.8 146.3 42.8 145.8 42.9ZM92.2 48.2V53.3H94.1H96V48.2V43.1H94.1H92.2V48.2ZM147.3 45.7C147.6 45.8 147.7 45.9 148 46.1C148.2 46.3 148.4 46.5 148.4 46.8V47H146.7C144.8 47 144.9 47 145.1 46.6C145.4 45.9 146.3 45.5 147.3 45.7ZM115 46.2C115.5 46.3 116.1 46.8 116.3 47.3C116.8 48.4 116.3 49.7 115.1 50.1C114.7 50.2 114.1 50.2 113.7 50.1C113.1 49.9 112.5 49.4 112.4 48.8C112.3 48.5 112.3 48.4 112.3 48.1C112.3 47.7 112.3 47.6 112.5 47.3C112.9 46.4 113.9 46 115 46.2Z" fill="white"/>
</svg>
